<?xml version="1.0" encoding="UTF-8"?>
<svg width="13px" height="14px" viewBox="0 0 13 14" version="1.1" xmlns="http://www.w3.org/2000/svg" xmlns:xlink="http://www.w3.org/1999/xlink">
    <!-- Generator: Sketch 52.2 (67145) - http://www.bohemiancoding.com/sketch -->
    <title>Shape</title>
    <desc>Created with Sketch.</desc>
    <g id="Wireframes-4" stroke="none" stroke-width="1" fill="none" fill-rule="evenodd">
        <g id="13.-Verhaal,-mobile-ingelogt" transform="translate(-153.000000, -1005.000000)" fill="#102F7D" fill-rule="nonzero">
            <g id="Group-10" transform="translate(9.000000, 953.000000)">
                <g id="Group">
                    <g id="Group-15" transform="translate(11.000000, 19.000000)">
                        <g id="Group-3" transform="translate(0.000000, 33.000000)">
                            <path d="M133.750996,5.5575282 L136.617012,8.61838906 C136.673063,8.67823173 136.698823,8.76499052 136.685466,8.84965875 L136.008794,13.1713967 L139.55172,11.130997 C139.621129,11.0907535 139.703894,11.0907535 139.773779,11.130997 L143.316228,13.1713967 L142.639795,8.84965875 C142.626438,8.76499052 142.652198,8.67849305 142.708249,8.61838906 L145.574265,5.5575282 L141.613696,4.92695899 C141.53594,4.91467687 141.468917,4.86110592 141.434093,4.78401603 L139.66263,0.852170004 L137.891168,4.78427735 C137.856344,4.86136724 137.789321,4.91493819 137.711565,4.92722031 L133.750996,5.5575282 Z" id="Shape"></path>
                        </g>
                    </g>
                </g>
            </g>
        </g>
    </g>
</svg>