<?xml version="1.0" encoding="UTF-8"?>
<svg width="528px" height="136px" viewBox="0 0 528 136" version="1.1" xmlns="http://www.w3.org/2000/svg" xmlns:xlink="http://www.w3.org/1999/xlink">
    <!-- Generator: Sketch 52.2 (67145) - http://www.bohemiancoding.com/sketch -->
    <title>Artboard</title>
    <desc>Created with Sketch.</desc>
    <defs>
        <filter x="0.0%" y="0.0%" width="100.0%" height="100.0%" filterUnits="objectBoundingBox" id="filter-1">
            <feGaussianBlur stdDeviation="0" in="SourceGraphic"></feGaussianBlur>
        </filter>
        <filter x="0.0%" y="0.0%" width="100.0%" height="100.0%" filterUnits="objectBoundingBox" id="filter-2">
            <feGaussianBlur stdDeviation="0" in="SourceGraphic"></feGaussianBlur>
        </filter>
        <filter x="0.0%" y="0.0%" width="100.0%" height="100.0%" filterUnits="objectBoundingBox" id="filter-3">
            <feGaussianBlur stdDeviation="0" in="SourceGraphic"></feGaussianBlur>
        </filter>
        <filter x="0.0%" y="0.0%" width="100.0%" height="100.0%" filterUnits="objectBoundingBox" id="filter-4">
            <feGaussianBlur stdDeviation="0" in="SourceGraphic"></feGaussianBlur>
        </filter>
    </defs>
    <g id="Artboard" stroke="none" stroke-width="1" fill="none" fill-rule="evenodd" opacity="0.674609375">
        <g id="Group-2-Copy" transform="translate(1.000000, 0.000000)">
            <g id="Group-Copy-6">
                <path d="M38.890002,0 C76.3462712,0 106.99231,30.3768176 106.99231,67.7224346 C106.99231,105.068052 76.3462712,135.623556 38.890002,135.623556 L38.5315688,135.623556 L10.3945627,134.551433 C4.48041497,134.372746 0,129.548193 0,123.651516 L0,10.5425426 C0,4.64586622 4.65963157,0 10.7529959,0 L38.890002,0 Z M39.0692186,114.00241 C64.6971922,114.00241 85.4863177,93.2746988 85.4863177,67.7224346 C85.4863177,42.1701703 64.338759,21.4424595 38.890002,21.4424595 L21.5059919,21.4424595 L21.5059919,113.466348 L39.0692186,114.00241 Z" id="Path" fill="#1AD0AC" filter="url(#filter-1)"></path>
                <path d="M194.629226,57.3585791 C198.930425,61.2896967 199.288858,68.0798089 195.166876,72.3683008 C191.044894,76.6567927 184.41388,77.014167 179.933465,72.9043623 C175.9907,69.1519319 170.614202,67.0076859 165.058488,67.0076859 C152.871759,67.0076859 142.835629,77.3715413 142.835629,90.0583299 L142.835629,123.830204 C142.835629,129.72688 137.996781,134.551433 132.082633,134.551433 C126.168486,134.551433 121.329637,129.72688 121.329637,123.830204 L121.329637,55.3930204 C121.329637,49.496344 126.168486,44.8504778 132.082633,44.8504778 C136.921482,44.8504778 140.864247,47.8881595 142.29798,52.1766514 C148.928994,48.0668467 156.814524,45.5652264 165.058488,45.5652264 C176.169917,45.5652264 186.56448,49.8537183 194.629226,57.3585791 Z" id="Path" fill="#ECB391" fill-rule="nonzero" filter="url(#filter-2)"></path>
                <path d="M248.394206,134.194059 C223.662316,134.194059 203.41084,114.181097 203.41084,89.3435812 C203.41084,64.6847528 223.662316,44.4931034 248.394206,44.4931034 C273.126097,44.4931034 293.377573,64.6847528 293.556789,89.5222684 C293.377573,114.181097 273.126097,134.194059 248.394206,134.194059 Z M248.394206,66.4716244 C235.669828,66.4716244 225.454481,76.6567927 225.454481,89.3435812 C225.454481,102.03037 235.669828,112.215538 248.394206,112.215538 C261.118585,112.215538 271.333931,102.03037 271.333931,89.3435812 C271.333931,76.6567927 261.118585,66.4716244 248.394206,66.4716244 Z" id="Combined-Shape" fill="#D21275" fill-rule="nonzero"></path>
                <path d="M349.293151,134.194059 C324.561261,134.194059 304.309785,114.181097 304.309785,89.3435812 C304.309785,64.6847528 324.561261,44.4931034 349.293151,44.4931034 C374.025042,44.4931034 394.276518,64.6847528 394.455734,89.5222684 C394.276518,114.181097 374.025042,134.194059 349.293151,134.194059 Z M349.293151,66.4716244 C336.568773,66.4716244 326.353427,76.6567927 326.353427,89.3435812 C326.353427,102.03037 336.568773,112.215538 349.293151,112.215538 C362.01753,112.215538 372.232876,102.03037 372.232876,89.3435812 C372.232876,76.6567927 362.01753,66.4716244 349.293151,66.4716244 Z" id="Combined-Shape" fill="#D2CB1C" fill-rule="nonzero" filter="url(#filter-3)"></path>
                <path d="M527.076018,79.3371001 L527.076018,79.8731616 C527.076018,80.2305359 527.076018,80.4092231 527.076018,80.5879103 L527.076018,123.830204 C527.076018,129.905567 522.416386,134.551433 516.502238,134.551433 C510.58809,134.551433 505.570026,129.905567 505.570026,123.830204 L505.570026,79.8731616 C505.570026,79.6944744 505.570026,79.5157873 505.570026,79.3371001 C505.570026,72.3683008 499.297445,67.0076859 491.949564,67.0076859 C484.064034,67.0076859 477.791453,72.3683008 477.791453,79.3371001 L477.791453,79.8731616 C477.791453,80.2305359 477.791453,80.4092231 477.791453,80.5879103 L477.791453,123.830204 C477.791453,129.905567 472.952605,134.551433 467.217674,134.551433 C461.124309,134.551433 456.464678,129.905567 456.464678,123.830204 L456.464678,79.8731616 C456.464678,79.6944744 456.464678,79.5157873 456.464678,79.3371001 C456.464678,72.3683008 450.192097,67.0076859 442.485783,67.0076859 C434.779469,67.0076859 428.506888,72.3683008 428.506888,79.3371001 L428.506888,124.366265 C428.506888,130.084254 423.847257,134.908808 417.753892,134.908808 C412.018961,134.908808 407.000896,130.084254 407.000896,124.366265 L407.000896,56.107769 C407.000896,50.2110926 412.018961,45.2078521 417.753892,45.2078521 C421.159008,45.2078521 424.384906,46.9947237 425.997856,49.496344 C431.015921,46.9947237 436.571635,45.5652264 442.485783,45.5652264 C451.984263,45.5652264 460.586659,49.1389697 467.217674,55.2143332 C473.490254,49.1389697 482.092651,45.5652264 491.949564,45.5652264 C511.12574,45.5652264 527.076018,60.7536352 527.076018,79.3371001 Z" id="Droom" fill="#15E0FD" filter="url(#filter-4)"></path>
            </g>
        </g>
    </g>
</svg>