<?xml version="1.0" encoding="UTF-8"?>
<svg width="13px" height="13px" viewBox="0 0 13 13" version="1.1" xmlns="http://www.w3.org/2000/svg" xmlns:xlink="http://www.w3.org/1999/xlink">
    <!-- Generator: Sketch 52.2 (67145) - http://www.bohemiancoding.com/sketch -->
    <title>Shape</title>
    <desc>Created with Sketch.</desc>
    <g id="Wireframes-4" stroke="none" stroke-width="1" fill="none" fill-rule="evenodd">
        <g id="13.-Verhaal,-mobile-ingelogt" transform="translate(-21.000000, -1171.000000)" fill="#102F7D" fill-rule="nonzero">
            <g id="Group-10" transform="translate(9.000000, 953.000000)">
                <g id="Group">
                    <g id="Group-15" transform="translate(11.000000, 19.000000)">
                        <g id="Group-3" transform="translate(0.000000, 33.000000)">
                            <g id="Group-15-Copy" transform="translate(0.000000, 91.000000)">
                                <g id="Group-17" transform="translate(1.000000, 75.000000)">
                                    <g id="like-(6)">
                                        <path d="M12.6098476,8.83793392 C12.8839139,8.49811794 13.0153539,8.13383522 12.9985743,7.75867838 C12.9817947,7.34546215 12.7916263,7.02195734 12.6350169,6.82350481 C12.8167956,6.3831033 12.8867105,5.68987871 12.2798493,5.1516102 C11.8351907,4.75742367 11.08011,4.58071936 10.0341834,4.62965286 C9.29867891,4.6622752 8.68342797,4.79548306 8.65825862,4.80092012 L8.65546202,4.80092012 C8.51563226,4.82538687 8.36741272,4.85529067 8.21639658,4.88791301 C8.2052102,4.71392723 8.23597275,4.2816813 8.56597097,3.30844835 C8.9574943,2.1503555 8.93512154,1.26411543 8.4932595,0.67147637 C8.0290247,0.0489335006 7.28792699,0 7.06979256,0 C6.86004793,0 6.66708286,0.0842743622 6.5300497,0.239230448 C6.21962764,0.589920535 6.25598337,1.23693015 6.29513571,1.53596821 C5.92598514,2.49832706 4.89124493,4.8580092 4.01591065,5.5131744 C3.99913108,5.52404852 3.9851481,5.53764115 3.97116513,5.55123379 C3.71387837,5.81493099 3.54048947,6.10037641 3.42303248,6.35048097 C3.25803336,6.26348808 3.07066149,6.21455458 2.86930663,6.21455458 L1.16338359,6.21455458 C0.5201667,6.21455458 0,6.72291928 0,7.34546215 L0,11.7630698 C0,12.3883312 0.522963295,12.8939774 1.16338359,12.8939774 L2.86930663,12.8939774 C3.1182036,12.8939774 3.350321,12.8178586 3.54048947,12.6873693 L4.19768934,12.7634881 C4.29836676,12.7770807 6.08818766,12.9972815 7.92555068,12.9619406 C8.25834551,12.9864074 8.57156417,13 8.86241006,13 C9.3630006,13 9.79926944,12.9619406 10.1628268,12.8858218 C11.0185849,12.7091175 11.6030733,12.3557089 11.8995124,11.8364701 C12.1260366,11.439565 12.1260366,11.0453785 12.0896809,10.7952739 C12.6462033,10.3059389 12.7440841,9.7649519 12.724508,9.38435801 C12.7133216,9.16415726 12.6629829,8.97657884 12.6098476,8.83793392 Z M1.16338359,12.1599749 C0.936859379,12.1599749 0.755080693,11.9805521 0.755080693,11.7630698 L0.755080693,7.34274362 C0.755080693,7.12254287 0.939655974,6.94583856 1.16338359,6.94583856 L2.86930663,6.94583856 C3.09583084,6.94583856 3.27760953,7.1252614 3.27760953,7.34274362 L3.27760953,11.7603513 C3.27760953,11.9805521 3.09303425,12.1572564 2.86930663,12.1572564 L1.16338359,12.1572564 L1.16338359,12.1599749 Z M11.8939192,8.51986616 C11.7764622,8.63948139 11.7540895,8.82162275 11.8435805,8.9629862 C11.8435805,8.96570473 11.9582409,9.15600167 11.9722239,9.41698034 C11.9918,9.77310749 11.8156146,10.0884567 11.446464,10.357591 C11.315024,10.455458 11.2618887,10.6240067 11.3178206,10.7762442 C11.3178206,10.7789628 11.4380742,11.1378084 11.2423125,11.4776244 C11.0549407,11.8038478 10.638248,12.0376412 10.0062175,12.1681305 C9.50003376,12.2741531 8.81207135,12.2931828 7.96749961,12.2279381 C7.95631323,12.2279381 7.94233025,12.2279381 7.92834728,12.2279381 C6.13013659,12.2659975 4.31234974,12.0376412 4.29277357,12.0349226 L4.28997698,12.0349226 L4.00752086,12.0023003 C4.02430044,11.9261815 4.03269022,11.8446257 4.03269022,11.7630698 L4.03269022,7.34274362 C4.03269022,7.22584693 4.01311405,7.11166876 3.97955491,7.00564617 C4.02989363,6.82350481 4.16972338,6.41844417 4.49972161,6.07319113 C5.75539284,5.10539523 6.98309811,1.84044333 7.03623342,1.69907988 C7.05860618,1.6419908 7.06419937,1.57946466 7.05301299,1.51693852 C7.00547088,1.2124634 7.02225045,0.840025094 7.08936873,0.728565454 C7.23758827,0.731283982 7.63750138,0.772061899 7.87800857,1.09556671 C8.16326127,1.47887913 8.15207489,2.16394814 7.84444942,3.07193643 C7.37462144,4.45566708 7.3354691,5.18423254 7.70741626,5.50501882 C7.89199154,5.66541196 8.13809192,5.67356754 8.31707401,5.61104141 C8.48766631,5.57298202 8.64986883,5.54035968 8.80368156,5.51589293 C8.81486794,5.5131744 8.82885092,5.51045588 8.8400373,5.50773735 C9.69859201,5.32559598 11.2367194,5.21413634 11.770869,5.68716018 C12.2239174,6.0895023 11.902309,6.62233375 11.8659533,6.67942284 C11.7624792,6.83166039 11.7932418,7.03011292 11.9330715,7.15244668 C11.9358681,7.1551652 12.2295106,7.42429946 12.2434936,7.78586366 C12.25468,8.02781263 12.137223,8.27519866 11.8939192,8.51986616 Z" id="Shape"></path>
                                    </g>
                                </g>
                            </g>
                        </g>
                    </g>
                </g>
            </g>
        </g>
    </g>
</svg>