<?xml version="1.0" encoding="UTF-8"?>
<svg width="19px" height="17px" viewBox="0 0 19 17" version="1.1" xmlns="http://www.w3.org/2000/svg" xmlns:xlink="http://www.w3.org/1999/xlink">
    <!-- Generator: Sketch 52.2 (67145) - http://www.bohemiancoding.com/sketch -->
    <title>Shape</title>
    <desc>Created with Sketch.</desc>
    <g id="Wireframes-4" stroke="none" stroke-width="1" fill="none" fill-rule="evenodd">
        <g id="13.-Verhaal,-mobile-ingelogt" transform="translate(-115.000000, -1169.000000)" fill-rule="nonzero" stroke="#102F7D">
            <g id="Group-10" transform="translate(9.000000, 953.000000)">
                <g id="Group">
                    <g id="Group-15" transform="translate(11.000000, 19.000000)">
                        <g id="Group-3" transform="translate(0.000000, 33.000000)">
                            <g id="Group-15-Copy" transform="translate(0.000000, 91.000000)">
                                <g id="Group-18" transform="translate(49.000000, 74.000000)">
                                    <g id="Group-19" transform="translate(47.000000, 0.000000)">
                                        <g id="reply">
                                            <path d="M16.4972089,6.77844863 C15.4724548,4.25962736 12.7056087,3.00018389 8.19633838,3.00018389 L6.07137161,3.00018389 L6.07137161,0.60013529 C6.07137161,0.437524765 6.01126396,0.296882423 5.89114833,0.178175426 C5.77096624,0.0594027544 5.62878788,0 5.46428097,0 C5.29974083,0 5.15742956,0.0594027544 5.03731393,0.178175426 L0.180223285,4.97827262 C0.0601076555,5.09714381 0,5.23772048 0,5.40023249 C0,5.56271166 0.0601076555,5.70328833 0.180223285,5.82209384 L5.03734716,10.6223224 C5.15759569,10.7409637 5.29990696,10.8005635 5.46431419,10.8005635 C5.6286882,10.8005635 5.77096624,10.7409965 5.89118155,10.6223224 C6.01133041,10.5036482 6.07140484,10.362973 6.07140484,10.2004282 L6.07140484,7.80021541 L8.19637161,7.80021541 C8.81602206,7.80021541 9.37091308,7.81886702 9.86101143,7.8563016 C10.3510766,7.89383468 10.8383174,7.96101988 11.3219365,8.0580214 C11.8058546,8.15489156 12.2265085,8.28758727 12.583865,8.45650256 C12.941155,8.62541786 13.2747873,8.84253837 13.5847289,9.10806113 C13.8947036,9.37384659 14.147694,9.68928211 14.3438663,10.0550573 C14.5397727,10.4207339 14.6931818,10.8533659 14.8039274,11.353413 C14.9144405,11.8534929 14.9699628,12.4191818 14.9699628,13.0502827 C14.9699628,13.3939584 14.954047,13.7784837 14.9225146,14.2034646 C14.9225146,14.2408006 14.914673,14.3142906 14.8987573,14.4237375 C14.8830409,14.5331843 14.8750997,14.6159016 14.8750997,14.6720535 C14.8750997,14.7656727 14.9019471,14.8438584 14.9556087,14.9063807 C15.0095029,14.9688374 15.083865,15 15.1786948,15 C15.2799043,15 15.3683546,14.9469677 15.4443115,14.8406404 C15.488437,14.7844557 15.5294059,14.7156614 15.5675837,14.6343233 C15.6055622,14.5531823 15.6483254,14.4594645 15.6956406,14.35317 C15.7431885,14.2468755 15.7763822,14.1721377 15.7952552,14.1282999 C16.5983519,12.347268 17,10.9378893 17,9.90029488 C16.9999335,8.65664617 16.8324362,7.61586657 16.4972089,6.77844863 Z" id="Shape"></path>
                                        </g>
                                    </g>
                                </g>
                            </g>
                        </g>
                    </g>
                </g>
            </g>
        </g>
    </g>
</svg>