<?xml version="1.0" encoding="UTF-8"?>
<svg width="1182px" height="3474px" viewBox="0 0 1182 3474" version="1.1" xmlns="http://www.w3.org/2000/svg" xmlns:xlink="http://www.w3.org/1999/xlink">
    <!-- Generator: Sketch 52.2 (67145) - http://www.bohemiancoding.com/sketch -->
    <title>Path 2</title>
    <desc>Created with Sketch.</desc>
    <g id="2.0" stroke="none" stroke-width="1" fill="none" fill-rule="evenodd" opacity="0.22109375" stroke-dasharray="1,100" stroke-linecap="round" stroke-linejoin="round">
        <g id="Vormgeving-van-het-verhaal" transform="translate(0.000000, -3.000000)" fill-rule="nonzero" stroke="#FFFFFF" stroke-width="5">
            <g id="Group-17-Copy-2" transform="translate(-2.000000, 0.000000)">
                <g id="Oval-Copy-2">
                    <path d="M1657.0318,909.750017 C1646.22823,1256.79855 1741.02422,1629.5815 1624.62109,1950.89562 C1582.65963,2066.72418 1402.27901,1939.15 1294.7227,1909.85223 C1125.21201,1863.6784 1423.24635,-380.699707 1150.75411,1129.10799 C1101.07115,1404.38818 1217.25596,1686.15013 1239.75657,1965.95636 C1240.60293,1976.48128 1217.69956,1998.54643 1219.84277,1988.26006 C1250.56935,1840.78763 1264.65322,1684.43482 1326.4222,1550.00398 C1355.21397,1487.34306 1424.40261,1461.73289 1478.21407,1425.95405 C1585.22308,1354.80458 1696.61544,1292.33239 1807.80766,1229.93448 C1813.69378,1226.63136 1824.87263,1223.12929 1827.51825,1229.93448 C1833.53225,1245.40403 1836.0435,1266.75868 1827.51825,1280.63515 C1774.0469,1367.66988 1712.12511,1448.19574 1646.7701,1524.13629 C1470.70715,1728.71615 1265.62365,1851.56022 1023.44807,1919.04963 C1017.00273,1920.84581 1003.99698,1926.54257 1003.53428,1919.04963 C978.515583,1513.89701 1067.14456,1256.5058 1243.92221,913.084075 C1308.04266,788.518786 1289.60812,778.129728 1373.15866,738.793357 C1545.63459,657.59008 1351.39412,1439.45671 1326.93021,1543.45083 C1317.39991,1583.96337 1308.07419,1624.63535 1295.73871,1664.1667 C1291.60331,1677.41934 1262.73769,1679.46339 1285.78181,1705.44003 C1292.09201,1712.55324 1304.87419,1710.64253 1312.50287,1705.44003 C1336.63731,1688.98116 1354.04182,1662.13466 1376.81629,1643.35758 C1468.90833,1567.42959 1663.95933,1402.38573 1705.39387,1642.32287 C1713.01255,1686.44075 1709.09682,1732.42316 1705.39387,1777.17974 C1704.44374,1788.66364 1699.37381,1800.54313 1691.67774,1808.106 C1607.09941,1891.2204 1515.318,1964.60265 1430.46161,2047.35335 C1394.85183,2082.07948 1365.95498,2124.96338 1330.68945,2160.13646 C1284.72212,2205.98326 1239.28271,2253.6566 1187.12726,2290.04972 C1091.05899,2357.08439 995.651978,2431.48836 887.810762,2469.16907 C793.859914,2501.99637 691.956769,2505.26964 593.87912,2497.33611 C560.167566,2494.60917 525.224766,2470.49879 506.908679,2438.35779 C484.78281,2399.5314 484.376067,2348.63181 482.829246,2302.46621 C476.325166,2108.34894 464.127863,1912.79665 482.829246,1719.696 C486.087606,1686.05189 523.779716,1670.20795 546.228259,1647.84131 C623.157806,1571.19246 678.257622,1545.542 782.04414,1537.81742 C835.742761,1533.82077 899.803742,1502.25525 943.488101,1537.81742 C994.840091,1579.6216 1001.54939,1665.57235 1022.12726,1733.26216 C1059.23641,1855.3307 1088.55574,1980.37427 1116.10817,2105.64187 C1153.10341,2273.84133 1194.89277,2488.10394 1207.65066,2670.36218 C1210.26063,2707.64816 1239.03852,2770.84468 1207.65066,2782.57046 C1177.71743,2793.75282 1186.90142,2713.96009 1186.41605,2678.29494 C1179.81166,2192.99805 1175.7511,1707.43603 1186.41605,1222.23166 C1188.6061,1122.59473 1204.87911,1023.47312 1224.92282,926.420304 C1228.11086,910.983625 1242.43881,900.706075 1254.48871,892.619861 C1265.63837,885.137763 1280.62614,888.219364 1292.08107,881.353047 C1295.01395,879.595022 1292.08107,866.330628 1292.08107,870.086233 C1292.08107,1234.19663 1100.53378,1540.7075 953.7498,1848.80449 C851.020864,2064.43072 743.088636,2276.87868 633.503503,2488.13871 C626.969522,2500.73503 616.224724,2510.0467 606.071238,2519.06497 C594.518702,2529.32586 582.309307,2539.14724 568.783677,2545.62246 C563.200597,2548.29528 550.734651,2552.48042 550.597101,2545.62246 C544.53647,2243.45073 535.090618,1940.61364 550.597101,1638.87385 C555.021507,1552.77959 585.115725,1470.54958 610.033676,1389.04949 C616.343639,1368.41126 626.180719,1345.42861 643.358798,1335.47464 C660.902842,1325.30861 692.582709,1316.19354 702.49057,1335.47464 C724.727779,1378.74916 717.688181,1434.35972 719.864338,1484.35754 C722.8673,1553.35142 722.659046,1917.277 702.388969,1984.926 C685.521874,2041.21795 609.952108,2091.26625 560.655599,2113.68959 C548.696897,2119.1292 530.769432,2136.69986 523.266437,2124.84144 C511.220459,2105.80286 513.625225,2075.31453 523.266437,2054.5963 C548.364436,2000.66261 582.673399,1951.14926 622.937001,1910.657 C771.079929,1761.67276 1077.46293,1493.94597 1269.42405,1375.9432 C1311.62155,1350.00345 1526.90627,1208.91451 1602.16727,1244.76529 C1610.91843,1248.93392 1610.04631,1264.94872 1610.19375,1275.69154 C1612.72746,1460.30707 1622.20398,1645.46796 1610.19375,1829.60492 C1607.87383,1865.17308 1584.77238,1895.18664 1567.82614,1925.25787 C1436.06317,2159.07227 1482.29158,2099.93538 1201.14819,2164.16032 C1184.08481,2168.05831 1164.57999,2172.77474 1148.92529,2164.16032 C776.688269,1959.32685 674.44982,1920.92751 439.140824,1551.84346 C371.545204,1445.81918 253.978887,1264.23154 287.044153,1104.16005 C301.877464,1032.35084 443.091175,991.039109 487.909295,1030.92575 C560.387048,1095.42856 614.35586,1186.15423 656.97333,1278.6807 C830.771179,1656.01188 916.633179,2044.79678 968.685145,2465.14521 C992.971909,2661.27428 993.329735,2860.29749 1001.09586,3058.14753 C1004.13747,3135.63587 1027.31364,3219.17473 1001.09586,3290.84174 C989.653533,3322.11964 923.014243,3333.41815 911.890195,3301.99358 C798.669493,2982.15392 718.869905,2647.04031 654.026902,2310.39897 C616.476717,2115.45204 612.876519,1913.66762 606.071238,1714.29252 C585.228768,1103.66835 577.608731,492.516133 571.1205,-118.519228 C565.957816,-604.719977 560.675892,-1091.13457 571.1205,-1577.22676 C580.489624,-2013.26592 630.143811,-2070.9526 800.637119,-2497.77147 C805.953592,-2511.08091 815.313219,-2525.93389 827.967784,-2528.81269 C992.945584,-2566.34371 978.373463,-2482.43296 1038.99302,-2278.52846 C1115.84915,-2020.00944 1230.09062,-1466.12711 1238.13095,-1212.09001 C1260.50944,-505.033372 1253.90174,203.154975 1238.13095,910.439822 C1232.28077,1172.80722 1177.40145,1629.91529 975.086006,1811.66999 C936.500786,1846.3339 829.604246,1950.75994 760.911135,1893.18194 C719.054299,1858.09789 704.12135,1793.58798 684.202393,1739.1255 C574.071573,1438.00542 487.235575,1121.12678 517.881585,791.103566 C518.826538,780.927483 536.657823,787.179874 545.009047,791.103566 C576.204892,805.760444 609.887838,819.077168 634.113109,845.713125 C707.94829,926.895734 783.316832,1010.23602 835.587857,1110.59823 C953.065411,1336.15925 1047.55945,1576.49057 1139.7812,1816.61359 C1175.45226,1909.49235 1196.62236,2008.88691 1218.31876,2107.13644 C1232.42649,2171.0216 1244.54653,2236.214 1246.97024,2302.00634 C1254.1216,2496.13281 1255.64253,2690.84444 1246.97024,2884.89152 C1246.31831,2899.47878 1232.07094,2912.32361 1219.53797,2915.81778 C1164.32858,2931.21007 1094.60907,2980.01234 1050.27073,2939.73102 C859.24807,2766.1872 703.873065,2544.21196 561.87481,2318.33172 C501.890262,2222.91278 476.163144,2103.49932 452.856956,1989.40973 C382.117595,1643.12297 318.618852,1293.93268 280.54169,941.136143 C260.96197,759.724063 273.281423,575.431421 280.54169,392.856175 C282.26091,349.62264 279.464659,296.223378 307.364349,266.621869 C333.543131,238.84624 378.284354,252.586722 414.146982,251.101258 C503.394472,247.404543 593.601393,237.274456 682.068773,251.101258 C730.818383,258.720464 775.942903,286.805931 818.722094,314.333378 C865.892677,344.686588 907.117473,385.649501 949.888963,423.437528 C960.044078,432.409434 971.722047,441.17887 977.219627,454.363783 C1057.14467,646.048987 1086.09533,1213.72083 1086.13588,1214.41387 C1098.31038,1422.5094 1092.27203,1631.63155 1086.13588,1840.06696 C1085.16861,1872.92365 1076.60556,1905.63081 1064.90127,1935.71991 C1054.21051,1963.20348 1043.82393,1996.89186 1019.99364,2010.10388 C760.95822,2153.71862 818.818289,1566.27229 821.973326,1462.62868 C822.64739,1440.48554 856.065813,1423.46312 938.611254,1416.06685 C1034.02073,1407.51793 1130.11708,1411.38235 1225.73563,1416.06685 C1235.90408,1416.56502 1247.17896,1422.0778 1253.06629,1431.47249 C1335.8943,1563.64494 1397.69285,1994.35256 1398.3557,2002.9759 C1420.42121,2290.03893 1460.18746,2587.89307 1398.3557,2867.41646 C1345.2234,3107.61214 1189.36136,3303.54231 1065.51088,3507.67043 C1047.66301,3537.08696 1011.91329,3549.18368 980.877262,3555.4969 C885.727987,3574.85178 782.317923,3622.45023 691.924068,3583.66394 C628.600851,3556.49315 603.905351,3460.89571 587.275056,3386.60966 C550.524078,3222.44631 604.471662,2964.37567 671.299069,2823.61385 C803.119548,2545.95395 946.704982,2274.33287 1108.6913,2017.92167 C1166.58509,1926.2805 1247.62322,1855.44874 1326.4222,1786.60708 C1338.83386,1775.7638 1359.2326,1779.15611 1373.46346,1786.60708 C1446.75347,1824.98015 1431.44566,2021.01629 1344.60878,2022.4054 C407.67975,2037.39321 251.184263,2107.37924 -545.880702,1846.85004 C-600.180356,1829.10162 -788.054748,1775.96839 -829.753847,1661.75238 C-832.288349,1654.81025 -835.611912,1642.75117 -829.753847,1639.21875 C-723.339821,1575.05091 -592.652853,1585.28464 -476.690433,1577.82611 C-315.892877,1567.48386 -155.592916,1546.27019 5.40622914,1541.38142 C244.692004,1534.11546 485.227548,1515.71023 723.521974,1541.38142 C868.795407,1557.03156 1137.10473,1709.52599 1276.33292,1787.87172 C1285.558,1793.06281 1315.68767,1795.95202 1305.6956,1798.79363 C1283.78761,1805.02397 1260.35675,1801.83318 1237.92775,1798.79363 C1180.10836,1790.95801 1116.2301,1798.83591 1065.61248,1766.25783 C850.88754,1628.05838 589.468111,1341.63547 476.02198,1091.97349 C444.828038,1023.32469 395.078841,889.239264 458.648212,861.233736 C626.734023,787.183422 821.137756,832.965597 999.775045,861.233736 C1266.7981,903.488322 1412.48091,971.323481 1580.72946,1169.23165 C1637.06068,1235.49318 1777.78064,1505.8771 1731.40372,1611.97146 C1703.84673,1675.01232 1568.67919,1700.53983 1527.08414,1701.87603 C1276.46776,1709.92689 1018.34142,1769.87399 774.932071,1701.87603 C574.165428,1645.79059 416.118006,1468.77765 241.831715,1342.83256 C67.1628025,1216.61097 -55.1654552,1016.22806 -177.272337,834.101408 C-196.340456,805.660648 -214.23272,773.504406 -219.639947,738.333487 C-228.718299,679.283998 -225.764063,618.058759 -219.639947,558.524331 C-216.531064,528.301912 -209.734886,495.816158 -192.309283,472.643614 C-180.434089,456.851996 -158.505621,453.428003 -140.187979,452.869206 C58.4375085,446.809941 263.053704,398.729807 455.904986,452.869206 C916.490526,582.17 1363.82826,1010.52941 1651.34215,1416.64169 C1705.12127,1492.6045 1721.31313,1595.10965 1745.42466,1688.53981 C1753.07633,1718.18939 1758.13397,1753.86788 1745.42466,1781.2036 C1736.88296,1799.57546 1711.25994,1797.20227 1693.20175,1800.86305 C1519.36683,1836.10303 1346.86105,1890.90423 1170.36309,1897.78064 C515.83101,1923.28141 -139.568028,1910.15157 -794.396705,1897.78064 C-811.111949,1897.46486 -828.985704,1878.606 -831.785867,1859.95634 C-842.206543,1790.55247 -869.047184,1705.13648 -831.785867,1648.76105 C-814.227832,1622.19619 -604.460467,1417.6557 -480.652871,1387.78485 C-468.8456,1384.93613 116.134475,1214.08241 258.494277,1274.7718 C373.488116,1323.79482 368.670589,1788.16507 368.934545,1799.36847 C373.367957,1987.54171 396.947834,2178.53682 368.934545,2364.08879 C338.032953,2568.77204 80.0378935,2773.88893 -65.2064537,2835.1106 C-133.158634,2863.753 -223.634259,2908.14542 -281.718147,2859.02384 C-340.757715,2809.09404 -320.589129,2697.15131 -326.625782,2614.02811 C-348.662747,2310.58464 -134.15875,2196.71649 80.9973601,2057.58545 C171.440812,1999.10006 255.798831,1928.04429 349.731959,1877.08649 C628.997626,1725.58761 915.293319,1591.25324 1199.11617,1451.01697 C1382.29653,1360.50794 1567.50738,1275.32395 1750.70791,1184.86722 C1779.59587,1170.60356 1804.96684,1146.85186 1835.23992,1136.92578 C1870.41861,1125.39123 1918.23849,1092.2372 1944.25778,1121.40517 C1973.08098,1153.71635 1962.87297,1218.34333 1944.25778,1259.13622 C1877.98245,1404.37041 1794.101,1540.71802 1697.46899,1662.21225 C1475.1469,1941.73507 1120.58701,2117.56701 808.663597,2214.17118 C631.445892,2269.05634 448.671486,2298.93764 266.825557,2328.6788 C214.603441,2337.2198 134.910207,2380.38833 108.531226,2328.6788 C62.8336217,2239.09984 64.0387028,2108.73393 108.531226,2018.38154 C299.297506,1630.98634 522.746518,1257.61598 793.728253,937.227248 C1556.08145,35.8772987 2161.28764,-459.967843 3163.87597,-887.881682 C3266.95643,-931.877361 3385.06374,-903.329409 3494.38397,-887.881682 C3527.89224,-883.146724 3560.63685,-859.166927 3581.25281,-828.903358 C3708.0734,-642.734756 3710.6051,-352.485104 3745.7448,-148.64071 C3765.73739,-32.6642822 3834.76447,214.65494 3791.77005,337.096942 C3764.52102,414.698285 3698.51063,468.515515 3640.18138,519.665318 C3459.56536,678.050236 3127.08551,823.965254 2939.84581,907.220733 C1901.4431,1368.94286 2201.98732,1253.2941 1063.37726,1514.82393 C930.783375,1545.2797 794.522872,1562.99834 659.614956,1571.158 C655.315188,1571.41806 650.357839,1566.65324 649.658059,1561.84563 C646.829036,1542.40973 645.041151,1521.74467 649.658059,1502.75234 C742.277397,1121.7491 825.777444,737.085698 940.846475,363.999335 C1009.55063,141.241014 1109.1149,-67.8468555 1199.62418,-280.393456 C2096.23528,-2385.94159 1298.75375,-569.2795 1716.97638,-1374.19417 C1841.33735,-1613.5403 1754.0687,-1548.56765 1948.42342,-1755.08147 C1955.60776,-1762.71527 1974.02838,-1765.29299 1977.9893,-1755.08147 C2057.26652,-1550.6997 2156.92024,-934.953256 2172.85999,-844.42397 C2282.42511,-222.152551 2263.44235,401.728866 2103.16172,1011.03638 C2072.11525,1129.05966 2015.81227,1236.73096 1967.118,1346.85642 C1916.76336,1460.73692 1871.68346,1579.13025 1806.18204,1682.67646 C1489.83299,2182.76868 1416.24648,2311.16248 1012.27197,2597.93266 C932.41751,2654.6191 849.33979,2709.41927 759.28552,2740.95222 C622.885046,2788.71353 479.797343,2807.84105 338.860654,2833.73099 C311.014008,2838.84639 281.361324,2842.46693 254.227035,2833.73099 C202.773342,2817.16538 142.621777,2805.32006 107.82002,2759.34702 C68.4274875,2707.30958 55.4376189,2632.6352 50.3138634,2564.36216 C36.0741397,2374.62061 35.8692475,2182.81041 50.3138634,1993.08869 C57.1686202,1903.05541 81.8898799,1814.53485 113.712877,1731.65262 C122.040954,1709.96233 147.238177,1703.01177 165.834181,1692.21877 C285.050485,1623.02638 400.552154,1542.96655 526.720871,1491.9454 C840.822549,1364.92636 1471.76347,1362.39479 1702.04104,1411.35318 C1875.44534,1448.21998 2021.78759,1582.70136 2170.62477,1689.91942 C2205.64463,1715.14672 2217.97099,1767.34299 2245.30149,1802.70252 C2437.24274,2051.03138 2287.68364,1753.46244 2478.47574,2246.01717 C2493.82102,2285.63301 2524.1859,2416.6303 2513.22328,2436.97818 C2509.57616,2443.74766 2344.47683,2454.98432 2334.10075,2448.13002 C1954.36375,2197.28099 1574.09674,1944.5958 1216.99795,1654.27949 C573.53171,1131.15048 133.149023,349.287259 -272.574059,-398.580037 C-394.039544,-622.476749 -454.746768,-881.95069 -540.49585,-1126.09432 C-551.238079,-1156.67945 -557.344055,-1189.32658 -561.730455,-1221.86224 C-564.473172,-1242.20606 -570.350923,-1301.72025 -561.730455,-1283.59979 C-543.91141,-1246.14366 -549.258165,-1198.41531 -532.469372,-1160.35464 C1215.56262,2802.48395 -1102.56854,-2491.04399 -167.21384,-463.191768 C-46.331594,-201.118639 488.767398,982.088303 662.561384,1484.35754 C708.358291,1616.71182 734.853408,1756.67455 775.338475,1891.22749 C779.156004,1903.91513 804.20746,1933.1824 795.049065,1924.68303 C635.942951,1777.02602 510.946577,1076.40087 510.261511,1073.00386 C441.150661,730.305849 463.053401,-123.681505 470.027522,-312.469386 C479.119325,-558.582449 524.008104,-642.723501 757.863106,-574.250364 C860.036668,-544.333774 956.408849,-489.076224 1046.3083,-426.517138 C1116.37486,-377.759326 1171.70756,-305.984124 1232.8477,-243.718826 C1351.01615,-123.375729 1311.35375,-136.407283 1380.77873,114.979748 C1389.44199,146.349307 1400.9492,177.785151 1401.91173,210.632701 C1408.01841,419.030878 1428.48808,629.838126 1401.91173,836.170823 C1341.8553,1302.43531 1185.56454,1534.25868 876.736255,1822.247 C852.303485,1845.03103 582.714071,2039.81856 486.38528,2097.59414 C475.14279,2104.3371 461.518551,2120.62137 450.723336,2112.99978 C440.580607,2105.83886 449.123894,2085.82249 450.723336,2072.41626 C477.824462,1845.25954 462.052744,1604.74451 536.779368,1391.69374 C687.868974,960.92683 959.680611,553.989522 1275.21531,256.619698 C1291.27446,241.485049 1308.65814,227.794944 1327.33661,217.185848 C1367.91757,194.136465 1448.22981,179.149178 1485.63094,197.411439 C1507.66621,208.170839 1512.27687,242.803195 1522.6137,267.311674 C1562.0181,360.738954 1567.22287,493.384848 1557.36124,594.854058 C1550.26964,667.821536 1497.41929,706.541041 1465.10755,766.61549 C1291.51354,1089.3639 1122.36175,1415.16882 954.664209,1741.88472 C878.804708,1889.67762 819.179772,2048.50575 734.49488,2190.028 C544.927128,2506.82661 339.946271,2811.64731 133.321866,3114.4816 C111.53923,3146.40682 79.4825565,3167.45324 51.0250703,3191.73976 C48.8349215,3193.6089 42.8168941,3194.84379 42.7953907,3191.73976 C40.0522485,2795.76556 28.0689046,2399.41625 42.7953907,2003.78067 C48.4699547,1851.33022 82.0528224,1701.84616 103.857581,1551.26862 C110.70971,1503.94974 127.080392,1458.1162 128.749822,1410.20351 C135.40368,1219.23759 134.389855,1027.86833 128.749822,836.860628 C128.54251,829.839707 114.99254,834.565709 111.579256,828.697936 C96.6810226,803.086397 82.998717,775.632629 75.917311,746.036309 C46.7323649,624.059545 37.0661272,480.302082 23.491204,353.307358 C21.994626,339.306725 23.491204,296.896642 23.491204,310.999321 C23.491204,502.144725 90.8791322,709.055686 171.422235,873.190355 C249.807419,1032.92751 609.170733,1378.24145 644.171606,1412.27292 C783.534985,1547.77643 926.414313,1679.00601 1074.55337,1802.01272 C1188.67374,1896.77214 1310.4345,1979.19452 1430.05521,2064.82841 C1447.25763,2077.14325 1465.02633,2089.79702 1484.71653,2095.63969 C1500.57207,2100.3445 1527.94294,2112.92335 1533.89141,2095.63969 C1552.33006,2042.06501 1543.67647,1981.02662 1543.94991,1923.53336 C1547.02985,1275.93086 1461.57169,621.565849 1543.94991,-19.3022824 C1555.93202,-112.518086 1713.99894,-46.5503973 1793.68512,-19.3022824 C1863.75051,4.6560707 1936.73189,53.8062451 1971.28364,126.821399 C2057.56275,309.147432 2095.926,516.311262 2141.87169,716.489664 C2206.48467,997.998645 2258.66293,1283.30659 2302.50284,1569.89335 C2401.5268,2217.22486 2493.13596,2866.20173 2570.32303,3517.3277 C2606.64377,3823.71808 2624.72393,4132.63929 2642.86613,4441.09149 C2648.92279,4544.06616 2667.66883,4651.38596 2642.86613,4750.69895 C2635.382,4780.66631 2599.45762,4711.9359 2580.99114,4688.84643 C2531.22743,4626.62466 2493.5817,4551.73431 2438.64816,4495.35615 C2259.87561,4311.88231 2058.62945,4157.53318 1881.97638,3971.44929 C1605.20725,3679.90453 1341.89563,3372.24488 1079.73502,3063.89591 C971.593209,2936.70131 866.79047,2805.22312 771.579238,2665.41858 C634.928498,2464.76584 503.088229,2259.17873 385.089101,2043.90432 C297.18598,1883.53626 223.257361,1713.35256 155.267678,1541.03651 C130.047049,1477.11624 51.5108703,1369.9707 106.702409,1338.34883 C188.196407,1291.65701 280.912513,1406.42344 371.779372,1416.98659 C895.314983,1477.84689 1417.24002,1420.70155 1939.99054,1490.45082 C2047.10972,1504.74346 2366.54922,1551.06082 2258.71282,1553.68294 L2268.56812,1564.83478 C2112.44345,1568.63107 1953.97549,1594.86242 1800.08598,1564.83478 C1576.6488,1521.23668 1361.96796,1430.75061 1147.90928,1346.16662 C863.564696,1233.80958 617.883165,1028.88737 327.582945,937.11228 C106.882733,867.34044 -114.155122,798.588677 -336.887481,737.643682 C-357.790571,731.924088 -383.510413,724.145172 -401.404105,737.643682 C-412.398446,745.937512 -379.870378,755.798798 -367.367776,760.637181 C-305.274729,784.666571 -236.728804,789.421834 -178.59315,823.869301 C-77.4557508,883.796849 13.4999285,963.86879 105.279995,1040.69799 C195.876449,1116.53639 284.899687,1195.33323 368.020136,1281.43992 C428.722552,1344.32317 477.454101,1420.70771 535.661757,1486.54192 C549.253046,1501.91399 572.631726,1505.73235 582.703012,1524.25126 C593.175775,1543.5084 602.363812,1571.4605 592.558307,1591.16234 C526.086751,1724.72122 207.357559,1780.36286 96.7455124,1783.04308 C-380.589428,1794.60932 -936.581712,1998.23034 -1361.53339,1685.55065 C-1461.60677,1611.9166 -1556.81001,1529.75987 -1649.36897,1444.46382 C-1667.09469,1428.12901 -1681.19667,1406.00127 -1690.51737,1382.38138 C-1695.58507,1369.53915 -1697.16009,1352.07555 -1690.51737,1340.18831 C-1683.16172,1327.02524 -1668.06337,1318.94366 -1654.34742,1317.65468 C-1586.71082,1311.2984 -1518.58054,1315.45028 -1450.73905,1317.65468 C-1276.76522,1323.30766 -1100.35839,1306.63495 -929.018007,1341.22301 C-141.633853,1500.17032 795.774,2061.17799 1278.36494,2816.3709 C1287.49401,2830.65672 1306.505,2868.53532 1290.96346,2867.3015 C1048.45841,2848.04937 926.989534,2686.82677 747.195003,2531.02158 C664.464816,2459.32979 571.673768,2402.49795 492.786142,2325.45971 C368.004263,2203.60313 -11.5459653,1745.52019 -92.0291131,1613.9259 C-385.79054,1133.61015 -663.764517,640.667284 -929.221209,139.697759 C-997.035841,11.7180731 -1049.29869,-127.402716 -1089.95396,-269.356577 C-1155.96864,-499.856512 -1198.59171,-738.153165 -1248.14669,-973.877365 C-1266.75328,-1062.3856 -1280.51566,-1152.13552 -1294.37514,-1241.75162 C-1295.9514,-1251.9438 -1303.35395,-1274.75123 -1294.37514,-1272.79284 C-1267.80227,-1266.99698 -1246.6949,-1243.60313 -1224.27046,-1226.46094 C-1032.27996,-1079.69533 -843.37691,-919.283916 -677.555575,-736.124593 C12.4389598,26.0145672 -323.764582,-311.774257 144.904378,313.643573 C265.045661,473.966758 395.975514,623.653886 516.35757,783.745647 C609.008213,906.9584 1016.11661,1406.14346 1093.45115,1660.83264 C1096.65357,1671.37931 1102.56838,1690.05383 1093.45115,1694.28818 C1044.3467,1717.09395 974.428266,1677.30939 939.119259,1647.72635 C769.75759,1505.82957 702.765696,1357.45045 624.054612,1136.58088 C602.346443,1075.66603 576.819015,884.319471 602.820006,848.242409 C632.057902,807.674057 696.338819,837.448138 741.606949,848.242409 C882.602477,881.86306 1023.58013,921.154357 1157.76457,980.569992 C1266.69013,1028.80123 1361.89571,1110.07338 1466.52996,1169.23165 C1506.52935,1191.84656 1551.997,1201.01068 1591.09276,1225.56572 C1780.12945,1344.29477 2027.10575,1681.92154 1977.6845,1942.38803 C1921.02773,2240.98814 1579.29475,2420.17213 1341.56075,2487.104 C1285.05645,2503.01228 1226.12704,2505.44282 1169.24548,2519.52484 C922.93911,2580.50224 886.35725,2618.20722 650.978872,2638.40122 C477.007626,2653.32687 302.542,2660.56522 128.140216,2666.10839 C11.8868091,2669.80337 -105.875226,2686.58827 -220.757558,2666.10839 C-238.856376,2662.88194 -228.915015,2622.4752 -220.757558,2603.91097 C-216.701447,2594.68033 -202.147721,2606.89265 -193.426894,2603.91097 C-124.61358,2580.38351 -58.6317954,2546.76148 10.5878793,2524.81334 C200.16326,2464.70288 389.95264,2404.34809 582.49981,2357.88054 C755.707744,2316.08015 929.959184,2271.96451 1106.76088,2260.27314 C1423.48652,2239.32902 1741.50526,2273.40674 2058.55888,2260.27314 C2070.87696,2259.76288 2051.89847,2232.85101 2044.84275,2221.41413 C1997.26223,2144.28901 1940.70152,2074.39673 1895.28611,1995.61798 C1851.60407,1919.846 1819.51324,1836.19847 1778.14017,1758.78494 C1688.4815,1591.02377 1590.4246,1429.08033 1502.2935,1260.2859 C1442.72568,1146.19771 1397.51058,1022.79514 1335.26149,910.55479 C1297.86216,843.120644 1246.67407,786.797401 1204.39942,723.157779 C1159.20562,655.123692 1120.13515,581.901572 1072.92775,515.641456 C1066.51127,506.635307 1053.69843,507.025184 1045.49549,500.120845 C1035.61908,491.807966 1029.26044,478.887078 1019.38403,470.574199 C1011.1811,463.669861 1002.13221,456.112968 991.95177,455.053588 C951.549591,450.849327 910.439388,448.891965 870.233792,455.053588 C833.409681,460.696989 799.639794,482.188293 763.146357,490.118673 C665.754965,511.282773 566.883086,522.737685 469.214714,542.198947 C366.830241,562.599932 263.737391,580.222503 163.090954,609.684864 C133.4421,618.364011 99.6540057,628.598831 80.7941582,655.901796 C63.7291314,680.606441 68.3928379,717.359878 67.0780255,748.680562 C56.9297662,990.426402 47.5034692,958.032889 136.268295,1159.11451 C165.928102,1226.30376 238.444667,1275.02227 245.286149,1355.47898 C245.509964,1358.11108 240.1152,1357.10973 238.275681,1355.47898 L5.50783013,1142.67416 C-88.1670262,1059.63079 -186.332428,983.065327 -278.263714,897.563463 C-405.723671,779.017707 -542.609763,670.217601 -652.358532,530.817165 C-713.003924,453.786741 -750.937825,355.230208 -781.696583,258.114275 C-795.179202,215.545028 -810.047647,154.3229 -781.696583,122.452635 C-730.50433,64.9059175 -646.457121,65.1602236 -580.526637,31.9732189 C-280.155723,-119.222562 -460.131281,-108.162388 43.5065976,-137.488864 C312.697822,-153.163677 585.732498,-183.843423 852.148818,-137.488864 C1036.90824,-105.342029 1215.41272,-17.4215953 1374.27627,94.0556644 C1798.09444,391.456102 1944.26077,748.155287 2092.90002,1251.77831 C2226.08074,1703.0244 2151.25956,1490.60501 2209.74115,1769.70685 C2226.90661,1851.6286 2250.66922,1931.76737 2265.62169,2014.24271 C2269.3922,2035.04025 2275.66322,2060.00058 2265.62169,2077.9347 C2259.25963,2089.29729 2241.39071,2081.62595 2229.95974,2077.9347 C2184.11722,2063.13139 2135.09202,2052.92707 2095.44004,2022.98024 C1957.22939,1918.5978 1837.79445,1784.75917 1700.82182,1678.3077 C1391.52921,1437.93373 1064.53826,1227.35465 757.558303,983.214245 C403.588438,701.702877 -607.884562,-242.745028 -1180.48044,-567.237347 C-1183.44804,-568.919099 -1189.88715,-570.940991 -1190.43734,-567.237347 C-1193.71038,-545.204447 -1198.08211,-520.810676 -1190.43734,-500.2113 C-1091.19778,-232.803466 -958.673437,-62.006279 -837.475522,203.274781 C-371.817069,1222.51977 -531.457147,1026.46537 -59.9232026,1930.66134 C19.4628506,2082.88909 114.797076,2223.73944 199.972111,2371.90658 C226.005105,2417.19255 242.429752,2470.01313 273.632823,2510.90227 C346.786925,2606.76491 430.39566,2691.7888 511.074319,2779.5813 C516.336284,2785.30724 537.308645,2794.0873 530.683309,2790.61818 C382.019383,2712.77575 424.938055,2744.9323 276.172848,2601.72659 C96.432997,2428.70379 -86.4387553,2259.50629 -259.467532,2077.9347 C-519.651551,1804.90483 -747.199628,1541.01825 -966.407169,1232.46377 C-1246.74086,837.868688 -1530.08759,445.706585 -1798.31601,40.4808133 C-1836.81415,-17.6801994 -1861.56121,-86.6200857 -1884.47365,-154.504053 C-1915.4348,-246.234424 -1936.78185,-341.821232 -1959.35357,-436.634277 C-1966.35297,-466.035406 -1969.93504,-496.411885 -1973.0697,-526.653823 C-1974.52153,-540.660488 -1983.15022,-577.254796 -1973.0697,-568.96186 C-1917.1661,-522.971662 -1875.73599,-457.819555 -1824.93547,-404.788282 C7951.16285,9800.59906 -5658.36429,-4408.26105 -1658.30986,-255.215575 C-1488.38231,-78.7887648 -1325.42592,106.12891 -1154.97859,281.912546 C-1109.71076,328.597607 -1054.82702,362.819113 -1011.51801,411.825811 C-968.208991,460.832509 -939.138457,524.17787 -896.708895,574.159909 C-706.226669,798.54804 -500.816746,1006.50033 -313.417654,1234.18828 C793.527983,2579.11574 -690.92073,894.957602 577.31816,2398.0042 C689.846032,2531.36601 816.982975,2647.91887 935.258421,2774.75267 C1015.08373,2860.3541 1216.95251,3148.63073 1171.58231,3035.269 C1097.36069,2849.81931 950.828487,2713.65379 844.935148,2549.07148 C723.328193,2360.06664 596.661054,2127.23728 571.222101,1887.6635 C566.340558,1841.6911 563.524659,1694.44098 592.355105,1639.67862 C623.715047,1580.11158 665.146204,1527.69592 707.164215,1477.22956 C885.858351,1262.6063 1059.42263,1041.19015 1253.9807,845.02332 C1648.18135,447.563126 1721.81743,292.291884 2108.34337,198.906017 C2130.10351,193.648699 2156.67267,184.786452 2175.09521,198.906017 C2187.57319,208.469496 2176.7173,233.112104 2175.09521,250.06655 C2172.13068,281.052529 2180.04779,319.354786 2161.37908,342.270479 C2024.43667,510.366197 1864.84647,652.909536 1718.5004,810.533072 C1663.01035,870.299191 1605.67772,928.435174 1555.93882,994.366091 C1361.3015,1252.36572 1154.83145,1501.27139 985.957312,1781.54851 C817.696456,2060.80777 698.411684,2374.13993 548.463481,2666.45329 C520.051072,2721.84126 487.316251,2774.62113 451.23134,2823.95875 C441.849384,2836.78637 427.459298,2844.20529 413.842179,2850.51624 C407.699504,2853.36311 397.236252,2857.02838 393.928386,2850.51624 C371.464728,2806.29246 443.948791,2745.90286 457.327399,2739.45765 C615.263478,2663.37117 778.006083,2599.10085 943.284899,2546.65716 C1161.93752,2477.27774 1385.47914,2429.31252 1607.34892,2374.55083 C1741.69011,2341.39286 1874.4986,2290.79246 2011.82243,2282.92174 C2409.38542,2260.13539 2808.0202,2275.60885 3206.04038,2282.92174 C3215.33082,2283.09243 3222.19289,2295.51279 3225.75097,2305.22543 C3229.30442,2314.92542 3233.67445,2331.26112 3225.75097,2336.72652 C2619.60052,2754.83273 1841.52323,2789.96945 1157.25657,2706.11707 C974.268245,2683.69306 804.647939,2585.28874 632.690695,2511.01724 C565.208296,2481.87035 475.111932,2468.76629 440.969641,2396.73955 C400.564805,2311.50132 432.189233,2202.77595 440.969641,2106.56161 C446.47534,2046.23101 568.156392,2072.63643 569.698086,2072.76116 C778.614195,2089.66435 738.053445,2070.14476 898.682068,2181.52041 C946.745192,2214.84611 998.29257,2243.70327 1040.00903,2286.6007 C1055.19197,2302.21346 1083.48719,2345.85148 1063.47886,2350.98249 C751.930602,2430.87715 495.239312,2184.60809 259.205484,1992.51385 C104.031237,1866.22654 -42.015244,1725.56436 -183.673199,1580.3554 C-259.836524,1502.28285 -320.190073,1406.30763 -392.869622,1324.09286 C-425.802662,1286.83916 -466.527109,1259.25918 -499.957058,1222.57656 C-541.120206,1177.40832 -477.313636,1199.54394 -543.543879,1157.7349 C-550.435067,1153.38471 -567.020054,1148.80853 -567.216908,1157.7349 C-575.105462,1515.44069 -573.002756,1873.42911 -567.216908,2231.18637 C-564.489262,2399.84534 -541.782786,2570.25468 -460.739079,2714.1648 C-459.537863,2716.29781 -454.963089,2716.46493 -454.033414,2714.1648 L-454.033414,2683.12358 C-424.395633,2609.79598 -391.50235,2537.98702 -354.870855,2468.82417 C-337.565928,2436.15125 -316.560062,2405.66479 -292.792655,2378.68966 C-259.969353,2341.43642 -222.597649,2309.62713 -186.010022,2277.17336 C-169.561794,2262.58354 -152.295583,2248.93997 -133.888718,2237.73951 C-71.8871624,2200.01198 -9.16813773,2163.63652 54.8859076,2130.58981 C238.764008,2035.72359 426.132944,1949.65642 609.728873,1854.09299 C628.715895,1844.21007 643.447512,1825.86843 661.850177,1814.65914 C690.45727,1797.23421 721.479471,1785.31341 750.344633,1768.44221 C754.493673,1766.01717 755.774313,1758.86189 760.199928,1757.1754 C766.426515,1754.8026 777.892234,1750.1003 779.910519,1757.1754 C786.16304,1779.09361 779.910519,1803.23904 779.910519,1826.27086" id="Path-2" transform="translate(694.611473, 1110.310318) rotate(-285.000000) translate(-694.611473, -1110.310318) "></path>
                </g>
            </g>
        </g>
    </g>
</svg>