<?xml version="1.0" encoding="UTF-8"?>
<svg width="41px" height="42px" viewBox="0 0 41 42" version="1.1" xmlns="http://www.w3.org/2000/svg" xmlns:xlink="http://www.w3.org/1999/xlink">
    <!-- Generator: Sketch 52.2 (67145) - http://www.bohemiancoding.com/sketch -->
    <title>Shape Copy 2</title>
    <desc>Created with Sketch.</desc>
    <g id="Wireframes-4" stroke="none" stroke-width="1" fill="none" fill-rule="evenodd">
        <g id="12.-Verhaal,-mobile-ingelogt" transform="translate(-130.000000, -726.000000)" fill="#7B7B7B" fill-rule="nonzero">
            <g id="Group-11" transform="translate(17.000000, 726.000000)">
                <path d="M121.283026,41.9980874 C121.131113,41.9980874 120.9792,41.9475929 120.851505,41.8473926 C120.625469,41.6706616 120.512452,41.3716389 120.560154,41.0757722 L122.828579,26.8599667 L113.221347,16.7933965 C113.021732,16.5835284 112.949811,16.2703041 113.035676,15.9854831 C113.122273,15.699873 113.351978,15.4915829 113.628651,15.4481891 L126.904552,13.3739659 L132.842381,0.440249719 C132.965673,0.170419246 133.221063,0 133.499938,0 C133.779546,0 134.034937,0.170419246 134.157495,0.440249719 L140.09459,13.3739659 L153.371225,15.4481891 C153.647898,15.4915829 153.876868,15.6990841 153.9642,15.9854831 C154.050064,16.2703041 153.978878,16.5843174 153.778528,16.7933965 L144.171297,26.8615447 L146.438988,41.0765611 C146.485956,41.3724279 146.372939,41.6714506 146.147637,41.8481816 C145.921602,42.0264906 145.621445,42.049371 145.374127,41.908144 L133.499938,35.1970972 L121.624281,41.908144 C121.517134,41.9681063 121.399713,41.9980874 121.283026,41.9980874 Z M115.310706,16.7791949 L124.129016,26.0204941 C124.301478,26.2011701 124.380737,26.4631108 124.339639,26.7187397 L122.25762,39.7668577 L133.158683,33.6065175 C133.372243,33.4850149 133.626899,33.4850149 133.841926,33.6065175 L144.741522,39.7668577 L142.660236,26.7187397 C142.619139,26.4631108 142.698398,26.2019591 142.87086,26.0204941 L151.68917,16.7791949 L139.503082,14.875391 C139.263837,14.8383091 139.057616,14.6765686 138.95047,14.4438201 L133.499938,2.57285723 L128.049406,14.4446091 C127.94226,14.6773576 127.736039,14.8390981 127.496794,14.87618 L115.310706,16.7791949 Z" id="Shape-Copy-2"></path>
            </g>
        </g>
    </g>
</svg>