<?xml version="1.0" encoding="UTF-8"?>
<svg width="360px" height="361px" viewBox="0 0 360 361" version="1.1" xmlns="http://www.w3.org/2000/svg" xmlns:xlink="http://www.w3.org/1999/xlink">
    <!-- Generator: Sketch 52.2 (67145) - http://www.bohemiancoding.com/sketch -->
    <title>Group 3 Copy 2</title>
    <desc>Created with Sketch.</desc>
    <defs>
        <radialGradient cx="50%" cy="50%" fx="50%" fy="50%" r="131.287685%" gradientTransform="translate(0.500000,0.500000),scale(1.000000,0.997230),rotate(171.425062),translate(-0.500000,-0.500000)" id="radialGradient-1">
            <stop stop-color="#010028" stop-opacity="0" offset="0%"></stop>
            <stop stop-color="#FFAF27" offset="100%"></stop>
        </radialGradient>
        <filter x="0.0%" y="0.0%" width="100.0%" height="100.0%" filterUnits="objectBoundingBox" id="filter-2">
            <feGaussianBlur stdDeviation="0" in="SourceGraphic"></feGaussianBlur>
        </filter>
        <radialGradient cx="50%" cy="50%" fx="50%" fy="50%" r="131.287685%" gradientTransform="translate(0.500000,0.500000),scale(1.000000,0.997230),rotate(171.425062),translate(-0.500000,-0.500000)" id="radialGradient-3">
            <stop stop-color="#010028" stop-opacity="0" offset="0%"></stop>
            <stop stop-color="#FFAF27" offset="100%"></stop>
        </radialGradient>
        <filter x="0.0%" y="0.0%" width="100.0%" height="100.0%" filterUnits="objectBoundingBox" id="filter-4">
            <feGaussianBlur stdDeviation="0" in="SourceGraphic"></feGaussianBlur>
        </filter>
        <radialGradient cx="50%" cy="50%" fx="50%" fy="50%" r="131.287685%" gradientTransform="translate(0.500000,0.500000),scale(1.000000,0.997230),rotate(171.425062),translate(-0.500000,-0.500000)" id="radialGradient-5">
            <stop stop-color="#010028" stop-opacity="0" offset="0%"></stop>
            <stop stop-color="#FFAF27" offset="100%"></stop>
        </radialGradient>
        <filter x="0.0%" y="0.0%" width="100.0%" height="100.0%" filterUnits="objectBoundingBox" id="filter-6">
            <feGaussianBlur stdDeviation="0" in="SourceGraphic"></feGaussianBlur>
        </filter>
        <ellipse id="path-7" cx="138.639884" cy="137.772272" rx="113.630662" ry="113.566211"></ellipse>
        <filter x="0.0%" y="0.0%" width="100.0%" height="100.0%" filterUnits="objectBoundingBox" id="filter-8">
            <feGaussianBlur stdDeviation="0" in="SourceGraphic"></feGaussianBlur>
        </filter>
        <path d="M132.236857,241.007904 C128.524707,241.007904 126.668631,239.292125 126.668631,235.860566 C126.668631,232.429007 128.524707,230.713227 132.236857,230.713227 L143.250679,230.713227 C147.388899,230.713227 149.45801,228.997448 149.45801,225.565889 C149.45801,222.13433 147.388899,220.418551 143.250679,220.418551 L106.913663,220.418551 C103.201513,220.418551 101.345437,218.702771 101.345437,215.271212 C101.345437,211.839653 103.201513,210.123874 106.913663,210.123874 L149.734012,210.123874 C155.022454,210.123874 157.666675,208.408094 157.666675,204.976535 C157.666675,201.544977 155.022454,199.829197 149.734012,199.829197 L121.970697,199.829197 C118.258547,199.829197 116.402472,198.113418 116.402472,194.681859 C116.402472,191.2503 118.258547,189.53452 121.970697,189.53452 L138.363652,189.53452 C143.652094,189.53452 146.296314,187.818741 146.296314,184.387182 C146.296314,180.955623 143.652094,179.239843 138.363652,179.239843 L113.073359,179.239843 C109.361208,179.239843 107.505133,177.524064 107.505133,174.092505 C107.505133,170.660946 109.361208,168.945167 113.073359,168.945167 L158.480443,168.945167 C163.768885,168.945167 166.413106,167.229387 166.413106,163.797828 C166.413106,160.366269 163.768885,158.65049 158.480443,158.65049 L128.814804,158.65049 C125.102653,158.65049 123.246578,156.93471 123.246578,153.503151 C123.246578,150.071592 125.102653,148.355813 128.814804,148.355813 L158.480443,148.355813 C163.768885,148.355813 166.413106,146.640034 166.413106,143.208475 C166.413106,139.776916 163.768885,138.061136 158.480443,138.061136 L128.814804,138.061136 C125.102653,138.061136 123.246578,136.345357 123.246578,132.913798 C123.246578,129.482239 125.102653,127.766459 128.814804,127.766459 L130.246877,127.766459 C134.385097,127.766459 136.454207,126.05068 136.454207,122.619121 C136.454207,119.187562 134.385097,117.471783 130.246877,117.471783 L93.9098607,117.471783 C90.1977103,117.471783 88.3416351,115.756003 88.3416351,112.324444 C88.3416351,108.892885 90.1977103,107.177106 93.9098607,107.177106 L137.489009,107.177106 C142.77745,107.177106 145.421671,105.461326 145.421671,102.029767 C145.421671,98.5982085 142.77745,96.882429 137.489009,96.882429 L112.388948,96.882429 C108.676798,96.882429 106.820723,95.1666495 106.820723,91.7350906 C106.820723,88.3035317 108.676798,86.5877522 112.388948,86.5877522 L181.221164,86.5877522 C186.509606,86.5877522 189.153827,84.8719727 189.153827,81.4404138 C189.153827,78.0088549 186.509606,76.2930754 181.221164,76.2930754 L146.609481,76.2930754 C142.89733,76.2930754 141.041255,74.5772959 141.041255,71.145737 C141.041255,67.714178 142.89733,65.9983986 146.609481,65.9983986 L158.307713,65.9983986 C162.445934,65.9983986 164.515044,64.2826191 164.515044,60.8510602 C164.515044,57.4195012 162.445934,55.7037218 158.307713,55.7037218 L121.970697,55.7037218 C118.258547,55.7037218 116.402472,53.9879423 116.402472,50.5563834 C116.402472,47.1248244 118.258547,45.409045 121.970697,45.409045 L169.942694,45.409045 C174.080915,45.409045 176.150025,43.6932655 176.150025,40.2617066 C176.150025,36.8301476 174.080915,35.1143682 169.942694,35.1143682 L133.605678,35.1143682 C129.893528,35.1143682 128.037453,33.3985887 128.037453,29.9670298 C128.037453,26.5354708 129.893528,24.8196914 133.605678,24.8196914 L126.52014,24.8196914 C130.644646,24.3661741 134.835612,24.1333796 139.080963,24.1333796 C201.827231,24.1333796 252.693131,74.9869375 252.693131,137.71798 C252.693131,199.686191 203.056804,250.06403 141.364674,251.280091 C144.069339,251.068259 145.421671,249.359976 145.421671,246.155243 C145.421671,242.723684 143.871133,241.007904 140.770055,241.007904 L132.236857,241.007904 Z M39.4481468,83.0883405 L39.4481468,86.5877522 L37.6031895,86.5877522 C38.1983912,85.4093554 38.8135246,84.2427372 39.4481468,83.0883405 Z" id="path-10"></path>
        <filter x="2.4%" y="0.0%" width="97.6%" height="100.0%" filterUnits="objectBoundingBox" id="filter-11">
            <feGaussianBlur stdDeviation="0" in="SourceGraphic"></feGaussianBlur>
        </filter>
    </defs>
    <g id="2.0" stroke="none" stroke-width="1" fill="none" fill-rule="evenodd">
        <g id="A4-Copy-4" transform="translate(-1073.000000, -192.000000)">
            <g id="Group-3-Copy-2" transform="translate(1037.000000, 177.000000)">
                <g id="Group-2" transform="translate(36.000000, 15.000000)">
                    <ellipse id="Oval-5" fill="url(#radialGradient-1)" fill-rule="nonzero" filter="url(#filter-2)" cx="180" cy="180.5" rx="180" ry="180.5"></ellipse>
                    <ellipse id="Oval-5-Copy" fill="url(#radialGradient-3)" fill-rule="nonzero" filter="url(#filter-4)" cx="180.342205" cy="180.843156" rx="159.809886" ry="160.253802"></ellipse>
                    <ellipse id="Oval-5-Copy-2" fill="url(#radialGradient-5)" fill-rule="nonzero" filter="url(#filter-6)" cx="180.684411" cy="181.186312" rx="137.56654" ry="137.948669"></ellipse>
                    <g id="Group" transform="translate(41.433460, 42.551331)">
                        <mask id="mask-9" fill="white">
                            <use xlink:href="#path-7"></use>
                        </mask>
                        <use id="Mask" fill="#FFAF27" fill-rule="nonzero" filter="url(#filter-8)" transform="translate(138.639884, 137.772272) rotate(14.000000) translate(-138.639884, -137.772272) " xlink:href="#path-7"></use>
                        <mask id="mask-12" fill="white">
                            <use xlink:href="#path-10"></use>
                        </mask>
                        <use id="Combined-Shape" fill="#F59A00" fill-rule="nonzero" filter="url(#filter-11)" transform="translate(142.503017, 137.706735) rotate(14.000000) translate(-142.503017, -137.706735) " xlink:href="#path-10"></use>
                    </g>
                </g>
                <polygon id="Rectangle-5" fill-opacity="0" fill="#D8D8D8" fill-rule="nonzero" points="0 0 408 0 408 393 0 393"></polygon>
            </g>
        </g>
    </g>
</svg>