<?xml version="1.0" encoding="UTF-8"?>
<svg width="11px" height="22px" viewBox="0 0 11 22" version="1.1" xmlns="http://www.w3.org/2000/svg" xmlns:xlink="http://www.w3.org/1999/xlink">
    <!-- Generator: Sketch 51.3 (57544) - http://www.bohemiancoding.com/sketch -->
    <title>Shape Copy 5</title>
    <desc>Created with Sketch.</desc>
    <defs></defs>
    <g id="Page-2" stroke="none" stroke-width="1" fill="none" fill-rule="evenodd">
        <g id="Desktop-Copy" transform="translate(-143.000000, -104.000000)" fill="#FFFFFF" fill-rule="nonzero">
            <path d="M159.077856,120.499797 C158.969841,120.499797 158.861827,120.459978 158.779128,120.381152 L148.501688,110.480848 L138.220028,120.381152 C138.055475,120.539616 137.787969,120.539616 137.623415,120.381152 C137.458862,120.222689 137.458862,119.965084 137.623415,119.806621 L148.203803,109.618644 C148.282283,109.54307 148.389454,109.5 148.501688,109.5 C148.613922,109.5 148.721093,109.54307 148.800416,109.618644 L159.376585,119.805808 C159.541138,119.964272 159.541138,120.221876 159.376585,120.38034 C159.293886,120.459978 159.185871,120.499797 159.077856,120.499797 Z" id="Shape-Copy-5" transform="translate(148.500000, 115.000000) rotate(-270.000000) translate(-148.500000, -115.000000) "></path>
        </g>
    </g>
</svg>