<?xml version="1.0" encoding="UTF-8"?>
<svg width="27px" height="22px" viewBox="0 0 27 22" version="1.1" xmlns="http://www.w3.org/2000/svg" xmlns:xlink="http://www.w3.org/1999/xlink">
    <!-- Generator: Sketch 51.3 (57544) - http://www.bohemiancoding.com/sketch -->
    <title>Shape</title>
    <desc>Created with Sketch.</desc>
    <defs></defs>
    <g id="Page-2" stroke="none" stroke-width="1" fill="none" fill-rule="evenodd">
        <g id="Desktop" transform="translate(-615.000000, -551.000000)" fill="#7B7B7B" fill-rule="nonzero">
            <path d="M640.62322,552.830707 C640.621511,552.830707 640.619801,552.830707 640.618155,552.830707 L638.901161,552.830707 L638.901161,552.141239 C638.910405,551.868349 638.759978,551.623098 638.53649,551.54687 C637.344471,551.180293 636.116998,550.996485 634.884713,551.000051 C632.858761,551.000051 630.098403,551.534983 628.057257,553.971895 C626.031305,551.511208 623.250687,551.000051 621.229801,551.000051 C619.997516,550.996485 618.770042,551.180293 617.578023,551.54687 C617.354535,551.623098 617.204108,551.868349 617.213352,552.141239 L617.213352,552.824763 L615.506488,552.824763 C615.22678,552.824763 615,553.090892 615,553.419132 L615,572.403272 C615,572.731512 615.22678,572.997641 615.506488,572.997641 C615.593477,572.997344 615.678947,572.970746 615.754667,572.920373 C615.805316,572.890655 620.870194,569.639457 627.940764,571.731636 L628.016738,571.731636 L628.062322,571.731636 C628.102714,571.737356 628.143486,571.737356 628.183879,571.731636 C635.274709,569.621626 640.339587,572.86688 640.369976,572.920373 C640.526671,573.026542 640.719769,573.026542 640.876464,572.920373 C641.032209,572.814873 641.128632,572.620291 641.129708,572.409216 L641.129708,553.425076 C641.129708,553.096836 640.902991,552.830707 640.62322,552.830707 Z M616.012976,571.458226 L616.012976,554.019445 L617.223482,554.019445 L617.223482,568.926215 C617.220316,569.254455 617.4445,569.523555 617.724208,569.52727 C617.751559,569.527642 617.778909,569.525413 617.805943,569.520583 C618.853739,569.332837 619.911603,569.233503 620.971492,569.223399 C622.439673,569.193532 623.901714,569.452677 625.296898,569.990135 C622.146227,569.543021 618.950415,570.048383 616.012976,571.458226 Z M620.971492,568.040605 C620.050254,568.043057 619.130092,568.112524 618.216198,568.248634 L618.216198,552.61079 C619.20233,552.352983 620.209354,552.221405 621.219671,552.218507 C623.113935,552.218507 625.727413,552.729664 627.540639,555.130914 L627.555834,569.936642 C626.502339,569.1283 624.445998,568.040605 620.971492,568.040605 Z M628.568809,555.130914 C630.382036,552.753439 632.995513,552.218507 634.889778,552.218507 C635.900031,552.221999 636.907056,552.353503 637.893251,552.61079 L637.893251,568.248634 C636.984485,568.111261 636.069388,568.039788 635.153151,568.034661 C631.698904,568.034661 629.637499,569.122356 628.568809,569.930698 L628.568809,555.130914 Z M640.111667,571.458226 C637.16796,570.04452 633.964804,569.539083 630.807486,569.990135 C632.209254,569.450745 633.678259,569.191526 635.153151,569.223399 C636.219688,569.230383 637.284389,569.327711 638.33896,569.51464 C638.615502,569.563898 638.873748,569.340713 638.915723,569.016187 C638.919838,568.984463 638.921738,568.952367 638.921421,568.920271 L638.921421,554.019445 L640.131927,554.019445 L640.111667,571.458226 Z" id="Shape"></path>
        </g>
    </g>
</svg>