<?xml version="1.0" encoding="UTF-8"?>
<svg width="21px" height="21px" viewBox="0 0 21 21" version="1.1" xmlns="http://www.w3.org/2000/svg" xmlns:xlink="http://www.w3.org/1999/xlink">
    <!-- Generator: Sketch 51.3 (57544) - http://www.bohemiancoding.com/sketch -->
    <title>Group 4</title>
    <desc>Created with Sketch.</desc>
    <defs></defs>
    <g id="Page-2" stroke="none" stroke-width="1" fill="none" fill-rule="evenodd">
        <g id="Desktop-Copy" transform="translate(-10.000000, -118.000000)" fill-rule="nonzero">
            <g id="Group-4" transform="translate(20.500000, 128.500000) rotate(-90.000000) translate(-20.500000, -128.500000) translate(10.000000, 118.000000)">
                <circle id="Oval-2" fill="#FFFFFF" cx="10.5" cy="10.5" r="10.5"></circle>
                <path d="M16.7697397,13.9998892 C16.7108226,13.9998892 16.6519054,13.9781697 16.606797,13.9351741 L11.0009206,8.53500785 L5.39274276,13.9351741 C5.30298613,14.0216086 5.15707409,14.0216086 5.06731747,13.9351741 C4.97756084,13.8487395 4.97756084,13.7082279 5.06731747,13.6217933 L10.8384381,8.06471512 C10.8812451,8.02349247 10.939702,8 11.0009206,8 C11.0621392,8 11.1205961,8.02349247 11.1638634,8.06471512 L16.9326825,13.6213501 C17.0224392,13.7077847 17.0224392,13.8482962 16.9326825,13.9347308 C16.8875741,13.9781697 16.8286569,13.9998892 16.7697397,13.9998892 Z" id="Shape-Copy-6" fill="#102F7D" transform="translate(11.000000, 11.000000) rotate(-270.000000) translate(-11.000000, -11.000000) "></path>
            </g>
        </g>
    </g>
</svg>