<?xml version="1.0" encoding="UTF-8"?>
<svg width="26px" height="22px" viewBox="0 0 26 22" version="1.1" xmlns="http://www.w3.org/2000/svg" xmlns:xlink="http://www.w3.org/1999/xlink">
    <!-- Generator: Sketch 51.3 (57544) - http://www.bohemiancoding.com/sketch -->
    <title>Group 3</title>
    <desc>Created with Sketch.</desc>
    <defs></defs>
    <g id="Page-2" stroke="none" stroke-width="1" fill="none" fill-rule="evenodd">
        <g id="Desktop" transform="translate(-382.000000, -169.000000)" fill="#102F7D" fill-rule="nonzero">
            <g id="Group-3" transform="translate(382.000000, 169.000000)">
                <path d="M22.0896,6.98564706 C21.8608,3.10329412 18.6459,0 14.7697333,0 C12.4167333,0 10.1382667,1.1487451 8.7269,3.02305882 C8.6944,3.00623529 8.66016667,2.99458824 8.62723333,2.97905882 C8.54143333,2.93764706 8.45433333,2.89839216 8.3655,2.86301961 C8.3161,2.84360784 8.2667,2.82592157 8.21686667,2.80866667 C8.1289,2.77803922 8.03963333,2.75086275 7.94863333,2.72627451 C7.8988,2.71290196 7.8494,2.69909804 7.79913333,2.68788235 C7.70163333,2.66588235 7.60196667,2.64905882 7.50143333,2.63396078 C7.45766667,2.6274902 7.41476667,2.61886275 7.37056667,2.61411765 C7.2267,2.59815686 7.0811,2.58823529 6.93333333,2.58823529 C4.7827,2.58823529 3.03333333,4.32968627 3.03333333,6.47058824 C3.03333333,6.52623529 3.0368,6.58058824 3.0407,6.63494118 C1.23803333,7.61286275 0,9.66231373 0,11.7134902 C0,14.768902 2.49686667,17.254902 5.56616667,17.254902 L7.8,17.254902 C8.03963333,17.254902 8.23333333,17.0620784 8.23333333,16.8235294 C8.23333333,16.5849804 8.03963333,16.3921569 7.8,16.3921569 L5.56616667,16.3921569 C2.97483333,16.3921569 0.866666667,14.2935294 0.866666667,11.7134902 C0.866666667,9.92156863 2.03883333,8.0614902 3.6543,7.29062745 L3.9,7.17372549 L3.9,6.90196078 C3.9,6.85019608 3.90346667,6.79756863 3.9065,6.7445098 L3.91126667,6.66470588 L3.90563333,6.58101961 C3.90303333,6.54435294 3.9,6.50768627 3.9,6.47058824 C3.9,4.80592157 5.2611,3.45098039 6.93333333,3.45098039 C7.06723333,3.45098039 7.1994,3.46262745 7.3307,3.47988235 C7.3645,3.48419608 7.3983,3.48980392 7.43166667,3.49541176 C7.54736667,3.51439216 7.66133333,3.53941176 7.77356667,3.57176471 C7.78873333,3.57607843 7.80433333,3.57909804 7.8195,3.58341176 C7.943,3.62094118 8.06346667,3.66839216 8.18133333,3.72188235 C8.2121,3.73568627 8.242,3.75078431 8.27233333,3.76545098 C8.37633333,3.81678431 8.47816667,3.87286275 8.57653333,3.93627451 C9.41156667,4.47462745 9.96666667,5.40854902 9.96666667,6.47058824 C9.96666667,6.70913725 10.1603667,6.90196078 10.4,6.90196078 C10.6396333,6.90196078 10.8333333,6.70913725 10.8333333,6.47058824 C10.8333333,5.28258824 10.2934,4.2192549 9.44666667,3.50662745 C10.6890333,1.88898039 12.7348,0.862745098 14.7697333,0.862745098 C18.1259,0.862745098 20.9135333,3.50921569 21.2043,6.85364706 C20.7618667,6.82258824 20.0984333,6.80662745 19.435,6.90713725 C19.1984,6.94294118 19.0359,7.16294118 19.0718667,7.39847059 C19.1043667,7.612 19.2889667,7.76513725 19.4995667,7.76513725 C19.5212333,7.76513725 19.5433333,7.76341176 19.565,7.75996078 C20.5300333,7.61458824 21.5358,7.75090196 21.5947333,7.75909804 C23.6123333,8.14086275 25.1333333,9.99101961 25.1333333,12.0663529 C25.1333333,14.4514118 23.1837667,16.3921569 20.7878667,16.3921569 L19.0666667,16.3921569 C18.8270333,16.3921569 18.6333333,16.5849804 18.6333333,16.8235294 C18.6333333,17.0620784 18.8270333,17.254902 19.0666667,17.254902 L20.7878667,17.254902 C23.6617333,17.254902 26,14.9272157 26,12.0663529 C26,9.69854902 24.3416333,7.57490196 22.0896,6.98564706 Z" id="Shape"></path>
                <path d="M17.0602122,17.5969804 L14.3333213,20.3116078 L14.3333213,11.4313725 C14.3333213,11.1928235 14.1396267,11 13.9,11 C13.6603733,11 13.4666787,11.1928235 13.4666787,11.4313725 L13.4666787,20.3116078 L10.7397878,17.5969804 C10.5703592,17.4283137 10.2965001,17.4283137 10.1270715,17.5969804 C9.95764284,17.7656471 9.95764284,18.0382745 10.1270715,18.2069412 L13.5932085,21.6574902 C13.6330741,21.6976078 13.6811727,21.729098 13.7344713,21.751098 C13.7873365,21.773098 13.8436682,21.7843137 13.9,21.7843137 C13.9563318,21.7843137 14.0126635,21.773098 14.0655287,21.751098 C14.1188273,21.729098 14.1669259,21.6976078 14.2067915,21.6574902 L17.6729285,18.2069412 C17.8423572,18.0382745 17.8423572,17.7656471 17.6729285,17.5969804 C17.5034999,17.4283137 17.2296408,17.4283137 17.0602122,17.5969804 Z" id="Shape"></path>
            </g>
        </g>
    </g>
</svg>