<?xml version="1.0" encoding="UTF-8"?>
<svg width="13px" height="13px" viewBox="0 0 13 13" version="1.1" xmlns="http://www.w3.org/2000/svg" xmlns:xlink="http://www.w3.org/1999/xlink">
    <!-- Generator: Sketch 51.3 (57544) - http://www.bohemiancoding.com/sketch -->
    <title>Shape</title>
    <desc>Created with Sketch.</desc>
    <defs></defs>
    <g id="Page-2" stroke="none" stroke-width="1" fill="none" fill-rule="evenodd">
        <g id="Desktop" transform="translate(-666.000000, -539.000000)" fill="#FFFFFF" fill-rule="nonzero">
            <path d="M678.976126,539.261049 C678.897385,539.104414 678.739902,539 678.529944,539 L666.483177,539 C666.273219,539 666.115736,539.104414 666.036995,539.261049 C665.958253,539.417684 666.010757,539.600416 666.141974,539.757024 L670.525004,544.481927 C670.577507,544.534147 670.603745,544.664659 670.603745,544.716879 L670.603745,550.042171 C670.603745,550.30322 670.787466,550.590366 671.02369,550.720877 L673.648255,551.947779 C673.726996,551.973876 673.805738,552 673.884479,552 C673.96322,552 674.068199,551.973903 674.146941,551.921683 C674.278158,551.843365 674.356899,551.68673 674.356899,551.504025 L674.356899,544.716852 C674.356899,544.664631 674.409403,544.53412 674.435641,544.4819 L678.818644,539.757024 C679.002364,539.600389 679.028602,539.417657 678.976126,539.261049 Z M673.726996,551.242976 L671.338628,550.120488 C671.31239,550.120488 671.286125,550.068268 671.286125,550.042171 L671.286125,544.716852 C671.286125,544.690755 671.286125,544.664631 671.286125,544.664631 L673.726969,544.664631 C673.726969,544.690728 673.726969,544.716852 673.726969,544.716852 L673.726969,551.242976 L673.726996,551.242976 Z M674.041934,543.985952 L670.997425,543.985952 L666.981836,539.65261 L678.057496,539.65261 L674.041934,543.985952 Z" id="Shape"></path>
        </g>
    </g>
</svg>