<?xml version="1.0" encoding="UTF-8"?>
<svg width="34px" height="29px" viewBox="0 0 34 29" version="1.1" xmlns="http://www.w3.org/2000/svg" xmlns:xlink="http://www.w3.org/1999/xlink">
    <!-- Generator: Sketch 51.3 (57544) - http://www.bohemiancoding.com/sketch -->
    <title>Group 3 Copy</title>
    <desc>Created with Sketch.</desc>
    <defs></defs>
    <g id="Page-2" stroke="none" stroke-width="1" fill="none" fill-rule="evenodd">
        <g id="Desktop" transform="translate(-631.000000, -683.000000)" fill="#102F7D" fill-rule="nonzero">
            <g id="Group-3-Copy" transform="translate(631.000000, 683.000000)">
                <path d="M28.8864,9.20835294 C28.5872,4.09070588 24.3831,0 19.3142667,0 C16.2372667,0 13.2577333,1.5142549 11.4121,3.98494118 C11.3696,3.96276471 11.3248333,3.94741176 11.2817667,3.92694118 C11.1695667,3.87235294 11.0556667,3.82060784 10.9395,3.77398039 C10.8749,3.74839216 10.8103,3.72507843 10.7451333,3.70233333 C10.6301,3.66196078 10.5133667,3.62613725 10.3943667,3.59372549 C10.3292,3.57609804 10.2646,3.55790196 10.1988667,3.54311765 C10.0713667,3.51411765 9.94103333,3.49194118 9.80956667,3.47203922 C9.75233333,3.4635098 9.69623333,3.45213725 9.63843333,3.44588235 C9.4503,3.42484314 9.2599,3.41176471 9.06666667,3.41176471 C6.2543,3.41176471 3.96666667,5.70731373 3.96666667,8.52941176 C3.96666667,8.60276471 3.9712,8.67441176 3.9763,8.74605882 C1.61896667,10.0351373 0,12.7366863 0,15.4405098 C0,19.468098 3.26513333,22.745098 7.27883333,22.745098 L10.2,22.745098 C10.5133667,22.745098 10.7666667,22.4909216 10.7666667,22.1764706 C10.7666667,21.8620196 10.5133667,21.6078431 10.2,21.6078431 L7.27883333,21.6078431 C3.89016667,21.6078431 1.13333333,18.8414706 1.13333333,15.4405098 C1.13333333,13.0784314 2.66616667,10.6265098 4.7787,9.61037255 L5.1,9.45627451 L5.1,9.09803922 C5.1,9.02980392 5.10453333,8.96043137 5.1085,8.8904902 L5.11473333,8.78529412 L5.10736667,8.67498039 C5.10396667,8.62664706 5.1,8.57831373 5.1,8.52941176 C5.1,6.33507843 6.8799,4.54901961 9.06666667,4.54901961 C9.24176667,4.54901961 9.4146,4.56437255 9.5863,4.58711765 C9.6305,4.59280392 9.6747,4.60019608 9.71833333,4.60758824 C9.86963333,4.63260784 10.0186667,4.66558824 10.1654333,4.70823529 C10.1852667,4.71392157 10.2056667,4.71790196 10.2255,4.72358824 C10.387,4.77305882 10.5445333,4.83560784 10.6986667,4.90611765 C10.7389,4.92431373 10.778,4.94421569 10.8176667,4.96354902 C10.9536667,5.03121569 11.0868333,5.10513725 11.2154667,5.18872549 C12.3074333,5.89837255 13.0333333,7.12945098 13.0333333,8.52941176 C13.0333333,8.84386275 13.2866333,9.09803922 13.6,9.09803922 C13.9133667,9.09803922 14.1666667,8.84386275 14.1666667,8.52941176 C14.1666667,6.96341176 13.4606,5.5617451 12.3533333,4.62237255 C13.9779667,2.49001961 16.6532,1.1372549 19.3142667,1.1372549 C23.7031,1.1372549 27.3484667,4.62578431 27.7287,9.03435294 C27.1501333,8.99341176 26.2825667,8.97237255 25.415,9.10486275 C25.1056,9.15205882 24.8931,9.44205882 24.9401333,9.75252941 C24.9826333,10.034 25.2240333,10.2358627 25.4994333,10.2358627 C25.5277667,10.2358627 25.5566667,10.2335882 25.585,10.2290392 C26.8469667,10.0374118 28.1622,10.217098 28.2392667,10.227902 C30.8776667,10.7311373 32.8666667,13.1699804 32.8666667,15.9056471 C32.8666667,19.0495882 30.3172333,21.6078431 27.1841333,21.6078431 L24.9333333,21.6078431 C24.6199667,21.6078431 24.3666667,21.8620196 24.3666667,22.1764706 C24.3666667,22.4909216 24.6199667,22.745098 24.9333333,22.745098 L27.1841333,22.745098 C30.9422667,22.745098 34,19.6767843 34,15.9056471 C34,12.784451 31.8313667,9.98509804 28.8864,9.20835294 Z" id="Shape"></path>
                <path d="M22.3095083,23.1960196 L18.743574,26.7743922 L18.743574,15.0686275 C18.743574,14.7541765 18.490281,14.5 18.1769231,14.5 C17.8635651,14.5 17.6102722,14.7541765 17.6102722,15.0686275 L17.6102722,26.7743922 L14.0443379,23.1960196 C13.8227774,22.9736863 13.464654,22.9736863 13.2430935,23.1960196 C13.0215329,23.4183529 13.0215329,23.7777255 13.2430935,24.0000588 L17.7757342,28.5485098 C17.8278661,28.6013922 17.8907644,28.642902 17.9604624,28.671902 C18.0295938,28.700902 18.1032585,28.7156863 18.1769231,28.7156863 C18.2505877,28.7156863 18.3242523,28.700902 18.3933837,28.671902 C18.4630818,28.642902 18.52598,28.6013922 18.5781119,28.5485098 L23.1107527,24.0000588 C23.3323132,23.7777255 23.3323132,23.4183529 23.1107527,23.1960196 C22.8891922,22.9736863 22.5310688,22.9736863 22.3095083,23.1960196 Z" id="Shape"></path>
            </g>
        </g>
    </g>
</svg>