<?xml version="1.0" encoding="UTF-8"?>
<svg width="29px" height="29px" viewBox="0 0 29 29" version="1.1" xmlns="http://www.w3.org/2000/svg" xmlns:xlink="http://www.w3.org/1999/xlink">
    <!-- Generator: Sketch 51.3 (57544) - http://www.bohemiancoding.com/sketch -->
    <title>Shape Copy 3</title>
    <desc>Created with Sketch.</desc>
    <defs></defs>
    <g id="Page-2" stroke="none" stroke-width="1" fill="none" fill-rule="evenodd">
        <g id="Desktop" transform="translate(-661.000000, -684.000000)" fill="#000066" fill-rule="nonzero">
            <path d="M689.841527,712.073047 L681.392241,703.612204 C683.547352,701.531077 684.882497,698.662066 684.882497,695.497942 C684.882497,689.157648 679.525994,684 672.941249,684 C666.356503,684 661,689.157648 661,695.497942 C661,701.838236 666.356503,706.995884 672.941249,706.995884 C675.831599,706.995884 678.484262,706.001038 680.551804,704.350262 L689.021561,712.831911 C689.133013,712.944153 689.281994,713 689.431544,713 C689.573702,713 689.715291,712.949081 689.825605,712.847242 C690.05192,712.637541 690.058744,712.29096 689.841527,712.073047 Z M672.941249,705.900842 C666.983703,705.900842 662.137262,701.23432 662.137262,695.497942 C662.137262,689.761564 666.983703,685.095042 672.941249,685.095042 C678.898794,685.095042 683.745235,689.761564 683.745235,695.497942 C683.745235,701.23432 678.898226,705.900842 672.941249,705.900842 Z" id="Shape-Copy-3"></path>
        </g>
    </g>
</svg>