<?xml version="1.0" encoding="UTF-8"?>
<svg width="20px" height="22px" viewBox="0 0 20 22" version="1.1" xmlns="http://www.w3.org/2000/svg" xmlns:xlink="http://www.w3.org/1999/xlink">
    <!-- Generator: Sketch 51.3 (57544) - http://www.bohemiancoding.com/sketch -->
    <title>calendar (3)</title>
    <desc>Created with Sketch.</desc>
    <defs></defs>
    <g id="Page-2" stroke="none" stroke-width="1" fill="none" fill-rule="evenodd">
        <g id="Desktop" transform="translate(-523.000000, -602.000000)" fill="#7B7B7B" fill-rule="nonzero">
            <g id="calendar-(3)" transform="translate(523.000000, 602.000000)">
                <g id="Group">
                    <path d="M19.6428571,1.46666667 L17.1428571,1.46666667 L17.1428571,0.366666667 C17.1428571,0.1639 16.9832143,0 16.7857143,0 L14.2857143,0 C14.0882143,0 13.9285714,0.1639 13.9285714,0.366666667 L13.9285714,1.46666667 L6.07142857,1.46666667 L6.07142857,0.366666667 C6.07142857,0.1639 5.91178571,0 5.71428571,0 L3.21428571,0 C3.01678571,0 2.85714286,0.1639 2.85714286,0.366666667 L2.85714286,1.46666667 L0.357142857,1.46666667 C0.159642857,1.46666667 0,1.63056667 0,1.83333333 L0,5.86666667 L0,21.6333333 C0,21.8361 0.159642857,22 0.357142857,22 L19.6428571,22 C19.8403571,22 20,21.8361 20,21.6333333 L20,5.86666667 L20,1.83333333 C20,1.63056667 19.8403571,1.46666667 19.6428571,1.46666667 Z M14.6428571,0.733333333 L16.4285714,0.733333333 L16.4285714,1.83333333 L16.4285714,2.93333333 L14.6428571,2.93333333 L14.6428571,1.83333333 L14.6428571,0.733333333 Z M3.57142857,0.733333333 L5.35714286,0.733333333 L5.35714286,1.83333333 L5.35714286,2.93333333 L3.57142857,2.93333333 L3.57142857,1.83333333 L3.57142857,0.733333333 Z M0.714285714,2.2 L2.85714286,2.2 L2.85714286,3.3 C2.85714286,3.50276667 3.01678571,3.66666667 3.21428571,3.66666667 L5.71428571,3.66666667 C5.91178571,3.66666667 6.07142857,3.50276667 6.07142857,3.3 L6.07142857,2.2 L13.9285714,2.2 L13.9285714,3.3 C13.9285714,3.50276667 14.0882143,3.66666667 14.2857143,3.66666667 L16.7857143,3.66666667 C16.9832143,3.66666667 17.1428571,3.50276667 17.1428571,3.3 L17.1428571,2.2 L19.2857143,2.2 L19.2857143,5.5 L0.714285714,5.5 L0.714285714,2.2 Z M0.714285714,21.2666667 L0.714285714,6.23333333 L19.2857143,6.23333333 L19.2857143,21.2666667 L0.714285714,21.2666667 Z" id="Shape"></path>
                    <path d="M13.0075188,8.25 L10.3759398,8.25 L9.62406015,8.25 L6.9924812,8.25 L6.2406015,8.25 L2.85714286,8.25 L2.85714286,11.6637931 L2.85714286,12.4224138 L2.85714286,15.0775862 L2.85714286,15.8362069 L2.85714286,19.25 L6.2406015,19.25 L6.9924812,19.25 L9.62406015,19.25 L10.3759398,19.25 L13.0075188,19.25 L13.7593985,19.25 L17.1428571,19.25 L17.1428571,15.8362069 L17.1428571,15.0775862 L17.1428571,12.4224138 L17.1428571,11.6637931 L17.1428571,8.25 L13.7593985,8.25 L13.0075188,8.25 Z M10.3759398,9.00862069 L13.0075188,9.00862069 L13.0075188,11.6637931 L10.3759398,11.6637931 L10.3759398,9.00862069 Z M13.0075188,15.0775862 L10.3759398,15.0775862 L10.3759398,12.4224138 L13.0075188,12.4224138 L13.0075188,15.0775862 Z M6.9924812,12.4224138 L9.62406015,12.4224138 L9.62406015,15.0775862 L6.9924812,15.0775862 L6.9924812,12.4224138 Z M6.9924812,9.00862069 L9.62406015,9.00862069 L9.62406015,11.6637931 L6.9924812,11.6637931 L6.9924812,9.00862069 Z M3.60902256,9.00862069 L6.2406015,9.00862069 L6.2406015,11.6637931 L3.60902256,11.6637931 L3.60902256,9.00862069 Z M3.60902256,12.4224138 L6.2406015,12.4224138 L6.2406015,15.0775862 L3.60902256,15.0775862 L3.60902256,12.4224138 Z M6.2406015,18.4913793 L3.60902256,18.4913793 L3.60902256,15.8362069 L6.2406015,15.8362069 L6.2406015,18.4913793 Z M9.62406015,18.4913793 L6.9924812,18.4913793 L6.9924812,15.8362069 L9.62406015,15.8362069 L9.62406015,18.4913793 Z M13.0075188,18.4913793 L10.3759398,18.4913793 L10.3759398,15.8362069 L13.0075188,15.8362069 L13.0075188,18.4913793 Z M16.3909774,18.4913793 L13.7593985,18.4913793 L13.7593985,15.8362069 L16.3909774,15.8362069 L16.3909774,18.4913793 Z M16.3909774,15.0775862 L13.7593985,15.0775862 L13.7593985,12.4224138 L16.3909774,12.4224138 L16.3909774,15.0775862 Z M16.3909774,9.00862069 L16.3909774,11.6637931 L13.7593985,11.6637931 L13.7593985,9.00862069 L16.3909774,9.00862069 Z" id="Shape"></path>
                </g>
            </g>
        </g>
    </g>
</svg>