<?xml version="1.0" encoding="UTF-8"?>
<svg width="14px" height="14px" viewBox="0 0 14 14" version="1.1" xmlns="http://www.w3.org/2000/svg" xmlns:xlink="http://www.w3.org/1999/xlink">
    <!-- Generator: Sketch 51.3 (57544) - http://www.bohemiancoding.com/sketch -->
    <title>Shape</title>
    <desc>Created with Sketch.</desc>
    <defs></defs>
    <g id="Wireframes-new" stroke="none" stroke-width="1" fill="none" fill-rule="evenodd">
        <g id="Overzicht-(smartphone)-Copy-2" transform="translate(-331.000000, -78.000000)" fill="#FFFFFF" fill-rule="nonzero">
            <g id="Group-11" transform="translate(8.000000, 65.000000)">
                <g id="Group-6">
                    <path d="M329.330489,20.0021478 L323.133497,26.2424335 C322.961334,26.4157993 322.961334,26.696665 323.133497,26.8700308 C323.21947,26.9568238 323.332349,27 323.44501,27 C323.557889,27 323.67055,26.9568238 323.756522,26.8700308 L330.000109,20.5828239 L336.243697,26.8700308 C336.329888,26.9568238 336.442549,27 336.555209,27 C336.66787,27 336.780749,26.9568238 336.866721,26.8700308 C337.038884,26.696665 337.038884,26.4157993 336.866721,26.2424335 L330.669948,20.0021478 L336.870878,13.7574563 C337.043041,13.5840906 337.043041,13.3032248 336.870878,13.1298591 C336.698715,12.9567136 336.419798,12.9567136 336.247853,13.1298591 L330.000328,19.4214717 L323.752147,13.1300794 C323.579984,12.9569339 323.301285,12.9569339 323.129122,13.1300794 C322.956959,13.3034451 322.956959,13.5843109 323.129122,13.7576766 L329.330489,20.0021478 Z" id="Shape"></path>
                </g>
            </g>
        </g>
    </g>
</svg>