<?xml version="1.0" encoding="UTF-8"?>
<svg width="15px" height="15px" viewBox="0 0 15 15" version="1.1" xmlns="http://www.w3.org/2000/svg" xmlns:xlink="http://www.w3.org/1999/xlink">
    <!-- Generator: Sketch 52.2 (67145) - http://www.bohemiancoding.com/sketch -->
    <title>loading</title>
    <desc>Created with Sketch.</desc>
    <g id="Jobstory" stroke="none" stroke-width="1" fill="none" fill-rule="evenodd">
        <g id="jobstory-1.1;-3" transform="translate(-62.000000, -524.000000)" fill-rule="nonzero">
            <g id="Group-6">
                <g id="Group-11" transform="translate(62.000000, 523.000000)">
                    <g id="loading" transform="translate(0.000000, 1.000000)">
                        <g id="SVGCleanerId_0" transform="translate(7.060547, 12.222222)" fill="#000000">
                            <path d="M0.439453125,0.00994152047 C0.207451172,0.00994152047 0.0192773437,0.197690058 0.0192773437,0.429298246 L0.0192773437,2.32921053 C0.0192773437,2.56081871 0.207421875,2.74856725 0.439453125,2.74856725 C0.671484375,2.74856725 0.859628906,2.56081871 0.859628906,2.32921053 L0.859628906,0.429298246 C0.859628906,0.197690058 0.671455078,0.00994152047 0.439453125,0.00994152047 Z" id="Shape"></path>
                        </g>
                        <g id="SVGCleanerId_1" transform="translate(7.060547, 0.000000)" fill="#000000">
                            <path d="M0.439453125,0 C0.207451172,0 0.0192773437,0.187748538 0.0192773437,0.419356725 L0.0192773437,2.31926901 C0.0192773437,2.55087719 0.207421875,2.73862573 0.439453125,2.73862573 C0.671484375,2.73862573 0.859628906,2.55087719 0.859628906,2.31926901 L0.859628906,0.419356725 C0.859628906,0.187748538 0.671455078,0 0.439453125,0 Z" id="Shape"></path>
                        </g>
                        <path d="M5.12197266,11.5962573 C4.9209082,11.4804678 4.6640625,11.549152 4.54801758,11.7497368 L3.5962207,13.3950877 C3.48017578,13.5956725 3.54902344,13.8521345 3.75,13.967924 C3.81618164,14.0060526 3.88839844,14.024152 3.95967773,14.024152 C4.10487305,14.024152 4.24614258,13.9489181 4.32395508,13.8144444 L5.27575195,12.1690936 C5.39179687,11.9685088 5.32294922,11.7120468 5.12197266,11.5962573 Z" id="Shape" fill="#FFFFFF"></path>
                        <path d="M11.25,1.00292398 C11.0489648,0.887105263 10.7920898,0.955818713 10.6760449,1.15640351 L9.72424805,2.80175439 C9.60820312,3.00233918 9.67705078,3.25880117 9.87802734,3.37459064 C9.94420898,3.4127193 10.0164258,3.43081871 10.0877051,3.43081871 C10.2329004,3.43081871 10.3741406,3.3555848 10.4519824,3.22111111 L11.4037793,1.57576023 C11.5198242,1.37517544 11.4509766,1.11868421 11.25,1.00292398 Z" id="Shape" fill="#FFFFFF"></path>
                        <path d="M3.38109375,9.85877193 C3.26507812,9.65824561 3.00811523,9.58947368 2.80713867,9.7052924 L1.15857422,10.6552339 C0.957597656,10.7710234 0.88875,11.0274854 1.00479492,11.2280702 C1.08266602,11.3626023 1.22381836,11.4377778 1.36907227,11.4377778 C1.44032227,11.4377778 1.51259766,11.4196491 1.5787207,11.3815497 L3.22728516,10.4316082 C3.42829102,10.3158187 3.49713867,10.0593567 3.38109375,9.85877193 Z" id="Shape" fill="#FFFFFF"></path>
                        <path d="M13.9951758,3.74269006 C13.8791309,3.54216374 13.6221973,3.47342105 13.4212207,3.58921053 L11.7726563,4.53915205 C11.5716797,4.65494152 11.502832,4.91140351 11.618877,5.1119883 C11.696748,5.24652047 11.8379004,5.32169591 11.9831543,5.32169591 C12.0544629,5.32169591 12.1266797,5.30356725 12.1928027,5.26546784 L13.8413672,4.31552632 C14.0423438,4.19973684 14.1112207,3.94327485 13.9951758,3.74269006 Z" id="Shape" fill="#FFFFFF"></path>
                        <path d="M2.32376953,7.06602339 L0.420175781,7.06602339 C0.188144531,7.06602339 0,7.25377193 0,7.48538012 C0,7.7169883 0.188144531,7.90473684 0.420175781,7.90473684 L2.32379883,7.90473684 C2.55580078,7.90473684 2.74397461,7.7169883 2.74397461,7.48538012 C2.74394531,7.25377193 2.55580078,7.06602339 2.32376953,7.06602339 Z" id="Shape" fill="#FFFFFF"></path>
                        <path d="M14.5798242,7.06602339 L12.6762012,7.06602339 C12.4441992,7.06602339 12.2560254,7.25377193 12.2560254,7.48538012 C12.2560254,7.7169883 12.4441699,7.90473684 12.6762012,7.90473684 L14.5798242,7.90473684 C14.8118262,7.90473684 15,7.7169883 15,7.48538012 C15,7.25377193 14.8118555,7.06602339 14.5798242,7.06602339 Z" id="Shape" fill="#FFFFFF"></path>
                        <path d="M3.22731445,4.53915205 L1.57875,3.58921053 C1.37774414,3.47339181 1.12081055,3.54210526 1.00479492,3.74269006 C0.88875,3.94327485 0.957597656,4.19973684 1.15857422,4.31552632 L2.80719727,5.26546784 C2.87337891,5.30359649 2.9455957,5.32169591 3.0168457,5.32169591 C3.16207031,5.32169591 3.30331055,5.24652047 3.38109375,5.1119883 C3.49713867,4.91140351 3.42829102,4.65494152 3.22731445,4.53915205 Z" id="Shape" fill="#FFFFFF"></path>
                        <path d="M13.8414258,10.6552339 L12.1928613,9.7052924 C11.9918262,9.58947368 11.7349219,9.65824561 11.6189062,9.85877193 C11.5028613,10.0593567 11.571709,10.3158187 11.7726855,10.4316082 L13.42125,11.3815497 C13.4874316,11.4196784 13.5596484,11.4377778 13.6308984,11.4377778 C13.776123,11.4377778 13.9173633,11.3626023 13.9951758,11.2280702 C14.11125,11.0274854 14.0424023,10.7710234 13.8414258,10.6552339 Z" id="Shape" fill="#FFFFFF"></path>
                        <path d="M5.27575195,2.80172515 L4.32395508,1.15637427 C4.20791016,0.955789474 3.95097656,0.887076023 3.75,1.00289474 C3.54902344,1.11868421 3.48017578,1.3751462 3.5962207,1.57573099 L4.54801758,3.22114035 C4.62588867,3.35567251 4.76704102,3.43084795 4.91229492,3.43084795 C4.98354492,3.43084795 5.05582031,3.41269006 5.12197266,3.3745614 C5.32294922,3.25877193 5.39179687,3.0022807 5.27575195,2.80172515 Z" id="Shape" fill="#FFFFFF"></path>
                        <path d="M11.4037793,13.3950877 L10.4519824,11.7497368 C10.3359375,11.5492105 10.0790332,11.4804386 9.87802734,11.5962573 C9.67705078,11.7120468 9.60820313,11.9685088 9.72424805,12.1690936 L10.6760449,13.8144444 C10.7538867,13.9489766 10.8950684,14.024152 11.0403223,14.024152 C11.1115723,14.024152 11.1838477,14.0060234 11.25,13.967924 C11.4509766,13.8521345 11.5198242,13.5956725 11.4037793,13.3950877 Z" id="Shape" fill="#FFFFFF"></path>
                        <path d="M7.5,0 C7.26799805,0 7.07982422,0.187748538 7.07982422,0.419356725 L7.07982422,2.31926901 C7.07982422,2.55087719 7.26796875,2.73862573 7.5,2.73862573 C7.73203125,2.73862573 7.92017578,2.55087719 7.92017578,2.31926901 L7.92017578,0.419356725 C7.92017578,0.187748538 7.73200195,0 7.5,0 Z" id="Shape" fill="#FFFFFF"></path>
                        <path d="M7.5,12.2321637 C7.26799805,12.2321637 7.07982422,12.4199123 7.07982422,12.6515205 L7.07982422,14.5514327 C7.07982422,14.7830409 7.26796875,14.9707895 7.5,14.9707895 C7.73203125,14.9707895 7.92017578,14.7830409 7.92017578,14.5514327 L7.92017578,12.6515205 C7.92017578,12.4199123 7.73200195,12.2321637 7.5,12.2321637 Z" id="Shape" fill="#FFFFFF"></path>
                    </g>
                </g>
            </g>
        </g>
    </g>
</svg>