<?xml version="1.0" encoding="UTF-8"?>
<svg width="13px" height="10px" viewBox="0 0 13 10" version="1.1" xmlns="http://www.w3.org/2000/svg" xmlns:xlink="http://www.w3.org/1999/xlink">
    <!-- Generator: Sketch 51.3 (57544) - http://www.bohemiancoding.com/sketch -->
    <title>Shape</title>
    <desc>Created with Sketch.</desc>
    <defs></defs>
    <g id="Wireframes-new" stroke="none" stroke-width="1" fill="none" fill-rule="evenodd">
        <g id="Overzicht-(smartphone)-Copy-2" transform="translate(-279.000000, -228.000000)" fill="#7B7B7B" fill-rule="nonzero">
            <g id="Group-10" transform="translate(8.000000, 130.000000)">
                <g id="Group-7-Copy-3" transform="translate(220.000000, 24.000000)">
                    <g id="001-star" transform="translate(9.000000, 72.000000)">
                        <g id="Group-4">
                            <path d="M54.4631414,2.83213949 C54.4623099,2.83213949 54.4614785,2.83213949 54.4606778,2.83213949 L53.6255316,2.83213949 L53.6255316,2.51874502 C53.6300276,2.3947043 53.5568599,2.28322638 53.4481554,2.24857738 C52.8683569,2.08195148 52.2713136,1.99840213 51.6719298,2.00002314 C50.6865065,2.00002314 49.3438673,2.24317402 48.3510533,3.35086138 C47.36563,2.23236732 46.0131365,2.00002314 45.0301767,2.00002314 C44.430793,1.99840213 43.8337496,2.08195148 43.2539512,2.24857738 C43.1452467,2.28322638 43.072079,2.3947043 43.076575,2.51874502 L43.076575,2.82943782 L42.2463558,2.82943782 C42.1103058,2.82943782 42,2.95040538 42,3.09960547 L42,11.7287601 C42,11.8779602 42.1103058,11.9989278 42.2463558,11.9989278 C42.2886674,11.9987927 42.33024,11.9867027 42.3670702,11.963806 C42.3917058,11.9502976 44.8552641,10.4724806 48.2943914,11.4234707 L48.3313448,11.4234707 L48.3535168,11.4234707 C48.3731637,11.426071 48.3929953,11.426071 48.4126422,11.4234707 C51.8616238,10.4643755 54.3251821,11.9394909 54.3399635,11.963806 C54.4161798,12.0120647 54.510103,12.0120647 54.5863193,11.963806 C54.6620737,11.9158512 54.7089737,11.8274051 54.7094972,11.7314618 L54.7094972,3.10230714 C54.7094972,2.95310706 54.5992222,2.83213949 54.4631414,2.83213949 Z M42.4927117,11.2991936 L42.4927117,3.37247479 L43.0815021,3.37247479 L43.0815021,10.1482794 C43.0799624,10.2974795 43.1890056,10.4197979 43.3250556,10.4214864 C43.3383588,10.4216553 43.351662,10.4206421 43.3648113,10.418447 C43.8744599,10.3331078 44.3890049,10.2879561 44.9045352,10.2833632 C45.6186592,10.2697873 46.3297961,10.3875804 47.008414,10.6318795 C45.4759268,10.4286459 43.9214831,10.6583559 42.4927117,11.2991936 Z M44.9045352,9.74572959 C44.4564448,9.74684403 44.0088778,9.77841988 43.5643595,9.84028827 L43.5643595,2.73217747 C44.0440143,2.61499225 44.5338313,2.55518389 45.0252496,2.55386682 C45.9466204,2.55386682 47.2178165,2.78621099 48.0997703,3.87768829 L48.107161,10.6075644 C47.5947409,10.2401364 46.5945362,9.74572959 44.9045352,9.74572959 Z M48.5998727,3.87768829 C49.4818265,2.7970177 50.7530226,2.55386682 51.6743934,2.55386682 C52.1657809,2.55545405 52.6555979,2.61522864 53.1352835,2.73217747 L53.1352835,9.84028827 C52.6932595,9.77784577 52.2481561,9.74535811 51.8024984,9.74302792 C50.1223517,9.74302792 49.1196835,10.2374347 48.5998727,10.6048627 L48.5998727,3.87768829 Z M54.214322,11.2991936 C52.7825019,10.6565998 51.2244861,10.426856 49.6887654,10.6318795 C50.370586,10.3867023 51.0851103,10.2688755 51.8024984,10.2833632 C52.3212622,10.2865377 52.839133,10.3307776 53.3520766,10.4157454 C53.4865869,10.4381355 53.6121976,10.3366876 53.6326143,10.189176 C53.6346159,10.1747558 53.6355398,10.1601668 53.6353858,10.1455777 L53.6353858,3.37247479 L54.2241762,3.37247479 L54.214322,11.2991936 Z" id="Shape"></path>
                        </g>
                    </g>
                </g>
            </g>
        </g>
    </g>
</svg>