<?xml version="1.0" encoding="UTF-8"?>
<svg width="6px" height="12px" viewBox="0 0 6 12" version="1.1" xmlns="http://www.w3.org/2000/svg" xmlns:xlink="http://www.w3.org/1999/xlink">
    <!-- Generator: Sketch 51.3 (57544) - http://www.bohemiancoding.com/sketch -->
    <title>Shape Copy 6</title>
    <desc>Created with Sketch.</desc>
    <defs></defs>
    <g id="Page-2" stroke="none" stroke-width="1" fill="none" fill-rule="evenodd">
        <g id="Desktop" transform="translate(-462.000000, -126.000000)" fill="#FFFFFF" fill-rule="nonzero">
            <path d="M470.76974,134.999889 C470.710823,134.999889 470.651905,134.97817 470.606797,134.935174 L465.000921,129.535008 L459.392743,134.935174 C459.302986,135.021609 459.157074,135.021609 459.067317,134.935174 C458.977561,134.848739 458.977561,134.708228 459.067317,134.621793 L464.838438,129.064715 C464.881245,129.023492 464.939702,129 465.000921,129 C465.062139,129 465.120596,129.023492 465.163863,129.064715 L470.932683,134.62135 C471.022439,134.707785 471.022439,134.848296 470.932683,134.934731 C470.887574,134.97817 470.828657,134.999889 470.76974,134.999889 Z" id="Shape-Copy-6" transform="translate(465.000000, 132.000000) rotate(-270.000000) translate(-465.000000, -132.000000) "></path>
        </g>
    </g>
</svg>