<?xml version="1.0" encoding="UTF-8"?>
<svg width="20px" height="20px" viewBox="0 0 20 20" version="1.1" xmlns="http://www.w3.org/2000/svg" xmlns:xlink="http://www.w3.org/1999/xlink">
    <!-- Generator: Sketch 51.3 (57544) - http://www.bohemiancoding.com/sketch -->
    <title>delete-cross</title>
    <desc>Created with Sketch.</desc>
    <defs></defs>
    <g id="Page-2" stroke="none" stroke-width="1" fill="none" fill-rule="evenodd">
        <g id="Desktop" transform="translate(-497.000000, -129.000000)" fill="#000000" fill-rule="nonzero">
            <g id="delete-cross" transform="translate(497.000000, 129.000000)">
                <path d="M0.176804568,19.8232197 C0.294642097,19.9410089 0.449071535,19.9999517 0.603500972,19.9999517 C0.757930409,19.9999517 0.912359846,19.9410089 1.03019738,19.8232197 L9.99999397,10.8533802 L18.9698388,19.8232679 C19.0876281,19.9410571 19.2421541,20 19.3965835,20 C19.5509647,20 19.7053941,19.9410571 19.8232799,19.8232679 C20.0589067,19.5876413 20.0589067,19.2055506 19.8232799,18.9698274 L10.8533868,9.99998793 L19.8232799,1.03014848 C20.0589067,0.794473563 20.0589067,0.412431104 19.8232799,0.176756187 C19.5876049,-0.0589187291 19.2055622,-0.0589187291 18.9698388,0.176756187 L9.99999397,9.14659564 L1.0301491,0.176852736 C0.794474043,-0.0588221806 0.412431352,-0.0588221806 0.176756294,0.176852736 C-0.0589187646,0.412479378 -0.0589187646,0.794570112 0.176756294,1.03024503 L9.14660116,10.0000362 L0.176804568,18.9698274 C-0.0588704904,19.2055023 -0.0588704904,19.587593 0.176804568,19.8232197 Z" id="Shape"></path>
            </g>
        </g>
    </g>
</svg>