<?xml version="1.0" encoding="UTF-8"?>
<svg width="22px" height="22px" viewBox="0 0 22 22" version="1.1" xmlns="http://www.w3.org/2000/svg" xmlns:xlink="http://www.w3.org/1999/xlink">
    <!-- Generator: Sketch 51.3 (57544) - http://www.bohemiancoding.com/sketch -->
    <title>Shape</title>
    <desc>Created with Sketch.</desc>
    <defs></defs>
    <g id="Page-2" stroke="none" stroke-width="1" fill="none" fill-rule="evenodd">
        <g id="Desktop" transform="translate(-637.000000, -501.000000)" fill="#7B7B7B" fill-rule="nonzero">
            <path d="M641.408618,522.91005 C641.330852,522.91005 641.253085,522.883708 641.187717,522.831434 C641.072006,522.739235 641.014151,522.583237 641.03857,522.428886 L642.199807,515.012619 L637.281737,509.760974 C637.179551,509.651488 637.142734,509.488081 637.186689,509.339493 C637.23102,509.190492 637.348609,509.081829 637.490241,509.059191 L644.286353,507.977086 L647.326007,501.229675 C647.389121,501.088906 647.519859,501 647.662619,501 C647.805754,501 647.936492,501.088906 647.999231,501.229675 L651.038509,507.977086 L657.834996,509.059191 C657.976629,509.081829 658.093842,509.190081 658.138548,509.339493 C658.182503,509.488081 658.146062,509.651899 658.043501,509.760974 L653.12543,515.013443 L654.286292,522.429298 C654.310335,522.583649 654.25248,522.739646 654.137145,522.831846 C654.021435,522.924868 653.86778,522.936804 653.741175,522.863127 L647.662619,519.362031 L641.583311,522.863127 C641.528461,522.894409 641.468352,522.91005 641.408618,522.91005 Z M638.351307,509.753565 L642.865518,514.574674 C642.953804,514.668931 642.994378,514.805583 642.973339,514.938942 L641.907526,521.746036 L647.487926,518.532238 C647.59725,518.468852 647.727612,518.468852 647.837687,518.532238 L653.417336,521.746036 L652.351898,514.938942 C652.33086,514.805583 652.371434,514.669342 652.459719,514.574674 L656.97393,509.753565 L650.735708,508.760367 C650.613236,508.741021 650.507669,508.656643 650.452819,508.53522 L647.662619,502.342238 L644.872419,508.535631 C644.817569,508.657054 644.712002,508.741433 644.589529,508.760778 L638.351307,509.753565 Z" id="Shape"></path>
        </g>
    </g>
</svg>