<?xml version="1.0" encoding="UTF-8"?>
<svg width="11px" height="22px" viewBox="0 0 11 22" version="1.1" xmlns="http://www.w3.org/2000/svg" xmlns:xlink="http://www.w3.org/1999/xlink">
    <!-- Generator: Sketch 51.3 (57544) - http://www.bohemiancoding.com/sketch -->
    <title>Shape Copy 6</title>
    <desc>Created with Sketch.</desc>
    <defs></defs>
    <g id="Page-2" stroke="none" stroke-width="1" fill="none" fill-rule="evenodd">
        <g id="Desktop-Copy" transform="translate(-143.000000, -127.000000)" fill="#102F7D" fill-rule="nonzero">
            <path d="M159.077856,143.499797 C158.969841,143.499797 158.861827,143.459978 158.779128,143.381152 L148.501688,133.480848 L138.220028,143.381152 C138.055475,143.539616 137.787969,143.539616 137.623415,143.381152 C137.458862,143.222689 137.458862,142.965084 137.623415,142.806621 L148.203803,132.618644 C148.282283,132.54307 148.389454,132.5 148.501688,132.5 C148.613922,132.5 148.721093,132.54307 148.800416,132.618644 L159.376585,142.805808 C159.541138,142.964272 159.541138,143.221876 159.376585,143.38034 C159.293886,143.459978 159.185871,143.499797 159.077856,143.499797 Z" id="Shape-Copy-6" transform="translate(148.500000, 138.000000) rotate(-270.000000) translate(-148.500000, -138.000000) "></path>
        </g>
    </g>
</svg>