<?xml version="1.0" encoding="UTF-8"?>
<svg width="21px" height="21px" viewBox="0 0 21 21" version="1.1" xmlns="http://www.w3.org/2000/svg" xmlns:xlink="http://www.w3.org/1999/xlink">
    <!-- Generator: Sketch 51.3 (57544) - http://www.bohemiancoding.com/sketch -->
    <title>Shape</title>
    <desc>Created with Sketch.</desc>
    <defs></defs>
    <g id="Page-2" stroke="none" stroke-width="1" fill="none" fill-rule="evenodd">
        <g id="Desktop" transform="translate(-667.000000, -502.000000)" fill="#000066" fill-rule="nonzero">
            <path d="M687.885244,522.328758 L681.766795,516.201941 C683.327393,514.694917 684.294222,512.617358 684.294222,510.326096 C684.294222,505.734849 680.415375,502 675.647111,502 C670.878847,502 667,505.734849 667,510.326096 C667,514.917343 670.878847,518.652192 675.647111,518.652192 C677.740124,518.652192 679.661018,517.931786 681.158203,516.736397 L687.291475,522.87828 C687.372182,522.959559 687.480065,523 687.58836,523 C687.691301,523 687.793831,522.963127 687.873714,522.889382 C688.037598,522.73753 688.042539,522.486557 687.885244,522.328758 Z M675.647111,517.85923 C671.333026,517.85923 667.823534,514.480025 667.823534,510.326096 C667.823534,506.172167 671.333026,502.792962 675.647111,502.792962 C679.961196,502.792962 683.470688,506.172167 683.470688,510.326096 C683.470688,514.480025 679.960784,517.85923 675.647111,517.85923 Z" id="Shape"></path>
        </g>
    </g>
</svg>